<svg xmlns="http://www.w3.org/2000/svg" viewBox="0 0 1100 1055" role="img" aria-labelledby="title desc">
<title id="title">한국 생물종 관측 위치와 광역시도 인구밀도</title>
<desc id="desc">광역시도 경계를 인구밀도로 색칠하고, GBIF 생물종 관측 위치를 초록 점으로 표시한 수업용 SVG 지도입니다.</desc>
<style>
  .province{stroke:#fff;stroke-width:1.6;vector-effect:non-scaling-stroke}
  .province:hover{stroke:#111827;stroke-width:2.4}
  .gbif-point{fill:#16a34a;fill-opacity:.68;stroke:#064e3b;stroke-width:.75;vector-effect:non-scaling-stroke}
  .label{font-family:-apple-system,BlinkMacSystemFont,"Segoe UI",sans-serif;font-size:16px;font-weight:800;fill:#1f2937;paint-order:stroke;stroke:#fff;stroke-width:4;stroke-linejoin:round}
  .title{font-family:-apple-system,BlinkMacSystemFont,"Segoe UI",sans-serif;font-size:28px;font-weight:800;fill:#0f172a}
  .note{font-family:-apple-system,BlinkMacSystemFont,"Segoe UI",sans-serif;font-size:14px;fill:#475569}
</style>
<defs>
  <linearGradient id="densityGradient" x1="0" x2="1" y1="0" y2="0">
    <stop offset="0%" stop-color="#f0f9ff"/><stop offset="35%" stop-color="#bae6fd"/><stop offset="70%" stop-color="#60a5fa"/><stop offset="100%" stop-color="#1e40af"/>
  </linearGradient>
</defs>
<rect width="1100" height="1055" rx="28" fill="#f8fbff"/>
<text class="title" x="34" y="50">한국 생물종 관측 위치 + 광역시도 인구밀도</text>
<text class="note" x="34" y="78">배경: korea_sido_wikidata_population.csv 인구밀도 · 점: GBIF 관측 300건</text>
<g><path class="province" d="M417.53 960.58 L420.10 964.90 L419.36 967.18 L416.23 966.57 L415.12 964.48 L417.53 960.58 Z M388.91 953.03 L392.06 954.89 L396.66 954.32 L397.18 956.84 L401.50 960.35 L403.85 959.50 L408.85 960.47 L411.06 964.97 L409.22 967.62 L410.49 970.14 L414.39 970.03 L415.03 972.13 L412.80 973.93 L409.78 982.40 L409.62 985.08 L406.98 985.86 L404.09 988.67 L403.30 992.03 L399.40 995.62 L400.17 997.02 L397.99 1000.10 L393.49 1001.43 L388.58 1000.45 L383.16 1005.68 L381.02 1005.58 L374.41 1007.30 L369.08 1006.98 L366.19 1008.05 L362.51 1012.38 L359.08 1013.37 L357.06 1011.87 L350.86 1013.11 L346.42 1012.49 L344.51 1014.43 L341.12 1014.44 L338.15 1015.79 L334.90 1012.60 L331.76 1014.09 L328.70 1011.87 L324.13 1014.16 L313.53 1012.96 L309.89 1015.75 L309.08 1018.70 L305.64 1021.00 L301.93 1017.53 L299.23 1013.62 L293.89 1011.53 L291.01 1009.17 L287.26 1003.09 L288.33 1001.86 L287.57 997.34 L288.56 993.24 L292.24 989.88 L295.99 987.78 L297.55 985.06 L299.88 984.18 L303.73 980.38 L303.73 977.16 L311.11 974.10 L311.60 971.39 L316.09 971.29 L324.29 967.13 L325.78 968.11 L339.75 963.44 L341.91 961.32 L345.41 962.25 L349.51 959.65 L351.00 961.47 L356.36 960.31 L358.94 958.38 L364.74 958.25 L366.51 954.94 L368.87 955.77 L378.61 955.01 L379.96 954.09 L384.89 954.56 L388.91 953.03 Z" fill="rgb(236,248,255)"><title>제주특별자치도 · 인구 670,837명 · 인구밀도 363명/km²</title></path><path class="province" d="M627.19 755.70 L631.87 756.60 L633.79 761.42 L628.17 760.80 L625.08 758.44 L627.19 755.70 Z M617.27 744.62 L620.86 745.49 L621.53 748.36 L618.38 748.35 L617.27 744.62 Z M667.60 725.65 L669.29 731.79 L671.66 734.59 L668.80 736.31 L665.58 735.63 L665.82 732.96 L663.75 730.75 L667.60 725.65 Z M627.26 721.16 L631.62 725.17 L628.75 728.50 L623.35 727.28 L621.15 724.27 L623.87 721.50 L627.26 721.16 Z M620.48 717.52 L622.89 719.01 L620.48 723.16 L618.17 723.65 L615.77 720.88 L616.34 718.73 L620.48 717.52 Z M593.91 706.75 L594.52 710.57 L599.41 715.71 L598.32 720.11 L598.82 722.99 L592.51 720.06 L592.23 721.41 L586.36 721.89 L583.31 720.59 L582.13 715.82 L584.89 713.93 L587.78 708.51 L589.59 706.75 L593.91 706.75 Z M571.33 701.86 L575.02 703.10 L577.04 707.65 L575.83 710.42 L571.82 715.30 L576.04 722.93 L579.05 723.68 L580.98 727.56 L586.81 722.50 L593.74 722.98 L598.35 724.54 L598.52 728.62 L596.83 729.46 L597.76 738.46 L592.67 743.28 L590.73 742.37 L586.07 744.73 L581.29 745.01 L579.59 740.78 L580.12 732.66 L576.83 732.92 L572.76 734.77 L574.17 740.12 L569.89 742.76 L566.71 741.98 L564.78 738.80 L561.64 737.57 L564.23 734.12 L561.42 728.00 L557.78 722.21 L556.78 718.07 L560.09 715.02 L560.70 710.90 L563.96 709.79 L564.65 705.61 L567.24 702.60 L571.33 701.86 Z M699.73 684.82 L702.05 686.54 L705.04 686.21 L706.55 688.80 L703.38 691.00 L702.21 695.89 L707.45 701.76 L706.10 703.72 L706.91 707.61 L705.75 710.29 L702.36 712.22 L705.36 714.89 L708.70 711.94 L710.07 716.15 L703.26 721.13 L709.63 729.88 L704.50 729.51 L704.45 726.34 L701.60 727.15 L698.64 726.09 L697.57 729.81 L698.78 731.12 L692.89 735.26 L695.27 738.95 L697.83 738.39 L700.29 739.86 L690.43 740.85 L692.04 743.29 L688.29 746.53 L683.39 743.80 L687.16 741.88 L687.53 740.30 L682.82 739.25 L680.72 734.77 L677.30 733.09 L676.48 730.67 L683.19 729.53 L684.11 728.15 L684.36 722.70 L683.00 718.74 L677.55 722.31 L672.93 727.04 L670.48 722.48 L667.28 721.17 L665.69 714.52 L669.65 709.39 L672.77 708.51 L674.71 705.98 L678.08 708.78 L683.87 707.71 L686.33 710.14 L688.58 710.07 L686.16 703.68 L684.24 701.85 L689.87 698.94 L694.22 698.88 L694.81 695.85 L690.10 694.61 L691.67 690.48 L694.31 688.74 L695.29 694.34 L697.66 690.92 L699.73 684.82 Z M649.11 580.80 L650.89 581.60 L659.06 578.67 L661.49 575.85 L667.77 576.37 L671.09 575.73 L671.75 569.25 L674.58 567.83 L676.44 573.47 L676.23 578.52 L679.81 580.14 L684.13 585.34 L687.74 586.40 L696.11 583.24 L701.55 583.85 L703.51 586.74 L707.09 586.37 L712.90 588.67 L717.17 589.01 L719.48 585.00 L724.87 583.31 L728.12 583.43 L731.17 579.02 L737.63 575.93 L741.82 576.54 L749.08 581.45 L752.61 579.16 L755.50 580.10 L756.32 582.71 L755.35 585.67 L751.32 588.49 L747.30 590.00 L751.17 595.76 L755.85 596.49 L769.52 601.99 L770.00 604.74 L774.94 610.33 L778.37 612.85 L781.16 613.39 L784.19 612.07 L788.04 617.58 L785.28 621.46 L783.72 626.37 L780.62 628.09 L776.34 625.78 L772.89 629.26 L770.33 635.87 L766.62 636.91 L764.11 639.26 L761.88 638.29 L760.21 641.11 L754.13 642.34 L751.67 649.41 L739.55 652.75 L733.11 653.18 L730.86 655.36 L732.70 658.96 L730.16 661.71 L726.43 663.33 L718.36 663.34 L719.69 666.25 L724.58 668.51 L726.23 672.61 L723.06 674.10 L719.67 675.79 L715.90 673.42 L708.42 675.42 L703.49 673.02 L701.12 664.82 L696.92 668.35 L692.31 664.90 L688.88 665.70 L685.64 660.76 L684.33 653.93 L680.85 658.49 L686.78 667.81 L687.12 673.13 L690.40 675.62 L692.63 679.76 L687.29 682.06 L682.95 682.71 L680.10 679.47 L680.32 676.93 L675.85 671.65 L673.31 674.45 L668.38 672.64 L665.00 674.33 L663.97 679.08 L660.52 679.01 L658.38 682.09 L655.77 680.82 L650.70 683.22 L652.12 685.71 L661.29 682.71 L661.70 679.36 L667.45 680.38 L665.61 684.64 L670.72 689.49 L666.75 693.45 L664.25 694.40 L660.31 693.25 L660.47 698.96 L659.04 699.95 L659.46 704.51 L657.26 711.27 L659.11 714.42 L662.24 707.50 L665.14 712.57 L663.08 714.56 L662.44 720.04 L657.69 722.47 L660.70 723.67 L660.79 728.01 L659.72 732.26 L658.05 734.79 L654.96 735.38 L652.17 730.39 L650.11 729.38 L650.44 725.74 L643.95 723.31 L647.12 721.29 L649.97 723.75 L650.19 719.11 L652.90 716.92 L649.79 713.69 L647.92 715.81 L641.12 713.19 L637.27 709.85 L638.81 708.74 L646.65 708.68 L645.14 704.35 L643.08 702.21 L637.53 703.79 L637.62 708.10 L634.77 709.51 L631.89 708.01 L632.54 704.14 L627.90 702.34 L620.51 703.63 L621.80 706.00 L620.65 708.03 L621.57 711.37 L617.39 711.18 L608.37 709.50 L600.96 706.04 L597.48 705.12 L593.30 700.04 L596.88 696.08 L594.80 691.89 L596.54 689.11 L592.71 686.01 L589.78 687.74 L591.27 690.64 L590.96 693.51 L586.70 694.07 L585.61 696.13 L582.07 694.27 L579.90 696.34 L577.27 693.40 L576.56 689.70 L572.55 697.51 L572.73 699.69 L567.97 701.77 L561.73 701.27 L553.30 702.99 L550.01 697.05 L552.08 694.26 L553.62 688.96 L551.13 686.73 L550.60 682.91 L545.95 680.81 L545.49 677.88 L542.44 677.23 L538.47 673.32 L538.56 668.47 L526.52 657.86 L526.00 648.90 L524.63 644.40 L522.31 643.26 L519.30 635.83 L521.73 635.36 L526.37 631.55 L526.74 629.46 L524.67 625.48 L529.58 618.35 L533.14 616.22 L533.97 610.50 L530.28 610.16 L528.84 607.91 L529.01 604.96 L531.62 603.65 L527.30 596.56 L526.94 594.88 L521.53 591.18 L520.93 589.17 L524.73 585.59 L525.02 581.56 L527.59 579.53 L526.30 575.12 L527.61 571.43 L529.37 570.10 L530.34 564.92 L533.00 562.79 L533.06 553.92 L539.42 548.42 L542.56 546.88 L546.81 538.53 L551.16 539.32 L553.73 537.00 L557.14 536.65 L560.77 533.71 L562.42 534.23 L564.15 530.11 L570.05 525.54 L569.60 529.47 L570.99 530.64 L574.70 529.69 L577.07 532.17 L577.38 536.25 L580.40 535.25 L583.75 537.10 L586.05 535.96 L588.02 539.53 L590.43 541.15 L593.62 539.90 L596.76 541.08 L599.96 539.00 L608.75 542.34 L608.35 545.70 L609.52 548.34 L613.37 548.94 L615.32 553.19 L619.08 554.76 L621.42 560.47 L621.51 567.46 L617.84 569.42 L615.30 569.49 L615.23 573.09 L618.70 572.31 L621.33 574.85 L627.01 575.41 L628.30 572.69 L631.17 575.06 L634.00 573.41 L638.52 572.79 L646.52 575.10 L649.11 580.80 Z" fill="rgb(237,248,255)"><title>경상남도 · 인구 3,350,350명 · 인구밀도 318명/km²</title></path><path class="province" d="M825.70 573.55 L819.58 571.17 L810.00 568.31 L801.61 574.03 L794.68 572.93 L793.67 570.76 L795.05 566.18 L793.62 564.35 L790.36 563.97 L785.97 560.70 L778.35 561.91 L775.91 560.12 L774.19 562.45 L766.60 564.23 L763.43 568.13 L763.16 572.02 L764.19 575.53 L759.81 573.70 L752.61 579.16 L749.08 581.45 L741.82 576.54 L737.63 575.93 L731.17 579.02 L728.12 583.43 L724.87 583.31 L719.48 585.00 L717.17 589.01 L712.90 588.67 L707.09 586.37 L703.51 586.74 L701.55 583.85 L696.11 583.24 L687.74 586.40 L684.13 585.34 L679.81 580.14 L676.23 578.52 L676.44 573.47 L674.58 567.83 L677.42 561.14 L683.35 557.50 L689.34 557.86 L688.29 559.98 L690.39 564.00 L692.81 563.55 L697.10 560.90 L700.26 560.66 L701.63 558.73 L702.25 554.08 L700.10 548.27 L705.66 545.34 L704.42 541.56 L711.43 536.01 L713.32 531.13 L712.24 525.49 L709.26 523.03 L710.35 520.17 L709.26 517.96 L710.52 515.30 L708.12 512.71 L707.16 509.11 L701.48 507.31 L689.48 508.81 L684.96 513.86 L679.46 515.34 L674.67 514.39 L675.95 520.97 L674.07 524.96 L669.07 528.90 L666.23 529.07 L664.90 527.01 L666.28 521.64 L660.64 521.81 L656.85 524.33 L654.44 530.18 L651.52 534.53 L652.27 537.23 L657.62 537.07 L663.73 538.89 L666.57 541.45 L665.20 544.87 L657.21 544.70 L655.11 547.04 L651.67 553.08 L652.69 556.33 L659.21 560.00 L659.32 564.07 L656.81 565.87 L647.29 563.25 L645.88 564.09 L646.62 568.10 L650.88 572.76 L654.37 575.20 L651.51 580.63 L649.11 580.80 L646.52 575.10 L638.52 572.79 L634.00 573.41 L631.17 575.06 L628.30 572.69 L627.01 575.41 L621.33 574.85 L618.70 572.31 L615.23 573.09 L615.30 569.49 L617.84 569.42 L621.51 567.46 L621.42 560.47 L619.08 554.76 L615.32 553.19 L613.37 548.94 L609.52 548.34 L608.35 545.70 L608.75 542.34 L599.96 539.00 L596.76 541.08 L593.62 539.90 L590.43 541.15 L588.02 539.53 L586.05 535.96 L583.75 537.10 L580.40 535.25 L577.38 536.25 L577.07 532.17 L574.70 529.69 L570.99 530.64 L569.60 529.47 L570.05 525.54 L569.17 523.14 L573.49 520.69 L571.24 512.70 L568.12 510.58 L568.31 505.90 L572.66 502.89 L574.77 500.14 L577.95 500.76 L582.13 497.53 L581.55 492.70 L583.02 488.45 L586.32 486.55 L587.74 482.12 L584.46 475.72 L586.16 473.49 L590.66 471.90 L594.72 474.66 L597.04 473.40 L596.69 470.78 L593.36 466.22 L596.10 463.25 L590.13 460.42 L585.53 461.87 L583.18 464.34 L580.13 463.26 L577.14 459.32 L570.78 456.78 L568.77 459.91 L564.12 459.77 L562.44 453.60 L564.24 449.82 L569.05 447.18 L570.62 444.90 L567.68 436.07 L569.24 433.18 L567.69 430.33 L569.20 426.03 L568.92 422.44 L573.18 417.50 L572.19 414.43 L567.73 411.95 L567.72 408.87 L565.78 406.49 L559.66 406.00 L555.33 402.28 L559.61 398.43 L563.84 398.39 L563.58 394.64 L565.98 394.37 L567.84 390.63 L570.35 395.35 L577.26 397.45 L578.37 391.42 L577.37 388.85 L570.01 384.09 L577.25 383.72 L577.26 381.35 L579.99 379.19 L582.11 375.77 L586.29 379.32 L588.87 379.48 L592.08 377.80 L596.32 380.98 L600.12 381.18 L599.73 378.56 L593.76 373.85 L597.46 365.54 L598.05 361.36 L602.23 363.56 L605.92 363.24 L606.81 360.86 L611.29 358.06 L615.48 360.65 L624.18 361.61 L623.42 355.45 L626.67 355.62 L628.03 351.04 L634.70 353.95 L636.98 358.02 L640.99 361.52 L643.13 361.21 L648.49 364.20 L650.92 361.75 L657.27 362.22 L661.93 355.38 L661.77 352.55 L657.87 350.37 L660.50 345.74 L660.75 341.00 L663.70 339.82 L664.24 337.44 L672.47 332.12 L672.64 330.27 L677.55 329.22 L681.92 324.96 L680.93 322.14 L683.98 319.88 L691.61 320.78 L695.16 315.95 L701.17 318.20 L703.02 320.37 L708.67 320.56 L711.47 322.69 L713.08 321.46 L711.49 317.40 L713.62 316.22 L716.90 311.90 L720.75 313.75 L723.76 313.65 L726.97 318.37 L731.72 319.71 L735.08 319.70 L739.36 311.11 L743.00 310.56 L745.57 313.77 L749.30 312.52 L762.68 315.54 L764.57 310.93 L767.74 309.58 L775.09 313.00 L783.97 320.46 L790.14 319.75 L788.98 314.51 L792.93 310.40 L795.59 309.24 L796.57 306.57 L800.25 307.04 L801.80 304.49 L807.68 301.41 L811.64 301.22 L814.49 305.99 L814.17 309.62 L818.34 313.75 L821.97 316.21 L819.94 318.22 L819.22 323.49 L820.65 326.75 L818.98 331.50 L820.77 336.75 L821.01 346.64 L820.06 348.18 L822.33 355.51 L826.96 361.51 L827.87 366.45 L830.43 370.11 L828.64 371.95 L830.18 376.55 L829.38 378.18 L830.00 382.74 L828.15 385.04 L823.64 388.02 L819.51 396.63 L819.25 401.68 L821.29 406.30 L824.17 409.49 L825.16 418.34 L823.13 421.99 L823.74 425.68 L823.47 431.88 L821.63 436.12 L816.84 443.36 L814.17 449.34 L814.69 451.18 L813.42 457.42 L814.48 459.98 L813.12 463.62 L815.09 466.20 L814.95 471.32 L813.03 472.27 L813.78 475.44 L816.38 477.29 L817.48 480.01 L817.15 485.42 L824.17 491.72 L820.56 493.86 L820.83 496.03 L814.39 498.99 L813.62 500.88 L814.91 504.56 L820.28 507.75 L822.35 510.54 L826.01 511.50 L829.61 507.60 L834.35 505.31 L834.55 503.30 L839.33 499.47 L841.58 494.47 L845.26 496.00 L847.52 506.38 L846.80 508.53 L843.11 511.68 L842.79 515.84 L839.46 521.56 L836.97 523.25 L838.36 527.21 L837.15 533.17 L838.41 534.83 L835.45 542.13 L836.23 543.52 L832.54 548.85 L833.41 551.61 L831.67 559.33 L829.47 563.99 L829.90 567.13 L825.70 573.55 Z M1063.93 227.87 L1064.35 231.60 L1066.00 234.29 L1065.11 240.08 L1056.95 244.05 L1051.72 243.08 L1046.73 239.74 L1047.21 236.26 L1045.15 234.40 L1054.11 230.35 L1061.73 229.30 L1063.93 227.87 Z" fill="rgb(239,249,255)"><title>경상북도 · 인구 2,546,960명 · 인구밀도 134명/km²</title></path><path class="province" d="M413.49 876.54 L414.21 879.82 L411.28 879.91 L410.03 877.43 L413.49 876.54 Z M472.82 862.66 L474.04 871.91 L470.85 867.96 L470.95 864.98 L472.82 862.66 Z M113.06 856.43 L115.78 856.93 L117.38 860.12 L121.46 864.61 L119.62 865.74 L116.49 864.88 L115.97 862.77 L113.03 861.65 L113.06 856.43 Z M351.07 841.52 L353.30 843.19 L356.83 843.19 L355.67 847.91 L350.83 851.15 L347.04 852.19 L343.76 849.20 L345.54 843.27 L349.57 840.96 L351.07 841.52 Z M369.39 838.71 L372.77 840.46 L370.61 844.56 L372.60 848.85 L369.67 853.95 L364.99 850.78 L363.84 847.70 L367.14 843.60 L364.86 841.49 L367.59 837.70 L369.39 838.71 Z M386.12 835.66 L387.16 839.54 L383.85 839.94 L386.12 835.66 Z M407.20 834.82 L412.58 842.41 L410.99 846.10 L405.77 846.69 L399.77 842.48 L403.93 835.90 L407.20 834.82 Z M354.17 831.51 L358.73 832.82 L361.90 834.86 L363.48 837.28 L360.98 838.49 L362.09 841.33 L357.22 842.84 L352.87 841.63 L350.83 839.79 L353.69 834.37 L354.17 831.51 Z M466.82 828.48 L467.80 832.81 L466.84 835.81 L461.99 834.57 L462.95 831.12 L466.82 828.48 Z M362.24 828.60 L363.77 830.72 L358.23 831.55 L360.06 828.75 L362.24 828.60 Z M267.80 816.14 L270.23 818.75 L274.34 818.11 L276.67 823.70 L273.30 822.88 L270.10 824.28 L269.05 822.62 L265.77 822.55 L264.60 819.05 L267.80 816.14 Z M422.50 812.18 L427.27 813.73 L425.32 817.08 L420.18 819.38 L417.76 817.26 L417.85 814.22 L422.50 812.18 Z M266.14 812.18 L269.97 813.72 L267.44 815.56 L266.14 812.18 Z M398.56 809.90 L399.91 811.31 L403.41 810.35 L405.10 812.72 L408.05 813.77 L405.81 817.68 L403.09 816.77 L399.51 819.89 L397.28 815.29 L393.52 814.82 L391.90 816.24 L388.81 814.56 L390.07 810.94 L392.53 813.45 L395.12 810.77 L398.56 809.90 Z M430.53 805.72 L433.72 808.50 L439.71 808.92 L440.67 813.21 L438.33 812.94 L432.95 814.32 L425.89 808.97 L426.55 805.65 L430.53 805.72 Z M373.20 800.92 L375.96 801.63 L381.00 805.73 L380.50 808.24 L383.67 815.66 L387.27 817.27 L385.54 820.96 L380.97 821.97 L378.60 820.15 L374.79 820.91 L372.02 816.92 L367.39 813.49 L365.70 804.62 L367.21 802.66 L373.20 800.92 Z M415.76 799.11 L416.74 801.01 L413.96 806.73 L411.34 809.42 L402.50 806.33 L403.87 802.31 L406.04 800.69 L409.14 800.91 L413.50 803.08 L415.76 799.11 Z M465.06 798.80 L467.55 800.84 L469.27 804.90 L465.74 803.95 L466.23 800.72 L465.06 798.80 Z M397.79 793.70 L399.63 796.12 L402.93 803.18 L398.00 804.36 L390.66 804.93 L387.70 809.73 L386.44 808.66 L387.98 804.73 L384.78 803.82 L386.16 800.24 L390.19 795.30 L392.30 795.59 L397.79 793.70 Z M432.62 790.96 L435.60 791.97 L437.15 796.02 L435.74 800.61 L430.77 797.05 L430.11 792.35 L432.62 790.96 Z M556.63 790.31 L557.49 793.01 L556.94 798.43 L553.40 798.09 L555.30 791.87 L556.63 790.31 Z M500.65 788.29 L507.02 790.05 L507.70 788.86 L512.69 792.59 L512.37 796.04 L505.44 799.21 L505.19 795.36 L500.94 794.06 L499.18 791.32 L500.65 788.29 Z M461.32 784.43 L463.27 787.74 L459.67 795.45 L455.69 795.83 L452.29 794.94 L448.60 796.04 L445.24 795.64 L440.89 789.29 L445.24 785.08 L447.20 787.97 L450.50 787.00 L455.61 784.13 L457.43 785.30 L461.32 784.43 Z M270.79 783.75 L272.96 786.53 L267.88 791.03 L267.57 786.64 L270.79 783.75 Z M447.18 779.81 L446.20 782.11 L440.79 781.52 L443.49 779.14 L447.18 779.81 Z M499.85 774.83 L503.17 776.49 L500.33 781.26 L505.20 781.69 L506.96 784.10 L503.59 786.15 L498.82 787.03 L497.51 783.76 L499.84 782.65 L497.97 780.02 L495.85 779.69 L499.85 774.83 Z M546.10 773.53 L548.63 773.58 L549.55 776.76 L552.51 779.67 L555.19 784.39 L551.05 785.45 L550.37 783.90 L543.52 780.25 L541.59 776.05 L546.10 773.53 Z M532.55 767.64 L536.10 770.57 L532.75 773.55 L529.46 769.46 L532.55 767.64 Z M302.24 766.89 L310.92 770.22 L311.46 773.63 L316.44 774.74 L323.73 782.31 L322.00 789.32 L319.80 791.14 L321.00 793.55 L316.39 798.50 L312.67 800.41 L309.09 799.76 L307.78 802.35 L304.63 801.83 L304.17 805.24 L301.06 805.25 L294.13 808.96 L289.58 809.97 L283.23 808.70 L283.19 806.02 L279.93 804.79 L279.03 802.23 L275.76 797.98 L277.89 793.81 L284.95 787.56 L289.42 785.94 L290.35 782.83 L293.57 781.76 L298.09 776.73 L302.92 776.45 L303.90 774.38 L300.62 770.57 L302.24 766.89 Z M514.08 761.47 L517.24 762.52 L514.58 765.69 L511.59 764.33 L514.08 761.47 Z M237.63 759.46 L238.52 764.19 L235.38 765.51 L232.85 764.85 L231.89 762.27 L237.63 759.46 Z M272.40 758.52 L274.82 762.44 L278.08 763.87 L279.38 766.87 L276.93 769.70 L277.95 773.12 L275.20 773.22 L274.30 775.65 L269.09 777.83 L268.73 771.22 L271.80 771.98 L274.35 768.90 L271.48 763.23 L269.03 763.40 L269.25 759.67 L272.40 758.52 Z M269.17 754.13 L269.60 757.51 L267.32 762.23 L270.45 764.46 L271.86 767.91 L270.17 770.85 L264.29 771.53 L262.98 764.02 L262.81 759.23 L265.82 758.41 L265.82 756.40 L269.17 754.13 Z M285.32 751.47 L291.37 753.57 L292.41 759.08 L287.69 762.02 L282.17 761.28 L278.90 756.45 L280.41 753.22 L285.32 751.47 Z M274.86 749.56 L275.35 752.38 L274.14 757.04 L271.62 754.94 L271.77 749.51 L274.86 749.56 Z M162.26 747.20 L158.23 752.97 L156.52 751.33 L162.26 747.20 Z M293.20 745.65 L293.37 749.75 L290.84 751.70 L287.52 750.36 L287.30 747.92 L293.20 745.65 Z M169.93 746.65 L173.73 747.93 L170.89 750.27 L170.37 753.49 L167.52 754.25 L167.98 756.98 L165.44 757.92 L165.28 760.85 L161.87 759.80 L160.50 757.08 L162.71 750.91 L165.15 746.99 L169.93 746.65 Z M132.23 744.63 L132.46 747.57 L130.82 750.33 L126.37 751.79 L130.45 745.81 L132.23 744.63 Z M547.31 740.58 L553.42 743.61 L554.29 746.38 L551.86 750.12 L554.91 753.88 L555.78 759.43 L554.44 762.96 L556.69 766.73 L553.35 767.62 L547.51 766.28 L541.03 760.75 L543.37 758.16 L543.19 754.80 L547.22 752.18 L548.88 748.66 L548.82 744.45 L547.31 740.58 Z M256.05 741.28 L257.33 742.83 L263.60 744.83 L262.57 749.56 L259.24 750.70 L258.12 753.31 L255.66 754.69 L247.39 750.86 L247.32 744.86 L251.69 744.24 L254.79 739.89 L256.05 741.28 Z M274.49 732.36 L277.04 733.73 L281.48 732.92 L283.84 736.09 L287.85 736.11 L292.89 740.93 L293.31 743.19 L289.50 746.62 L285.00 749.22 L280.82 749.88 L279.01 747.45 L273.30 745.25 L272.27 743.62 L273.12 738.17 L274.29 737.07 L272.31 733.62 L274.49 732.36 Z M314.49 730.88 L313.53 735.95 L311.32 734.95 L311.48 732.22 L314.49 730.88 Z M260.72 727.66 L260.97 735.82 L257.45 737.17 L251.63 737.14 L253.17 740.50 L251.78 742.83 L247.89 744.09 L243.89 741.95 L242.98 734.86 L246.26 732.79 L250.79 732.84 L255.80 730.05 L256.94 727.92 L260.72 727.66 Z M314.99 725.67 L316.34 728.60 L312.44 729.57 L313.01 726.20 L314.99 725.67 Z M289.06 727.93 L289.84 735.40 L283.41 735.38 L281.40 732.25 L277.49 732.59 L277.53 729.87 L282.93 728.58 L286.80 724.29 L289.06 727.93 Z M528.48 719.63 L525.26 717.94 L528.50 715.60 L530.69 718.06 L528.48 719.63 Z M279.96 713.38 L283.77 714.82 L285.91 720.24 L279.90 723.81 L280.90 728.04 L277.68 729.10 L276.39 726.50 L270.75 719.49 L274.64 717.68 L278.05 719.22 L279.96 713.38 Z M542.20 710.47 L546.82 711.95 L546.95 715.28 L542.28 716.20 L537.99 713.05 L542.20 710.47 Z M309.70 706.30 L312.16 708.64 L316.18 708.61 L317.32 711.31 L314.44 712.09 L314.30 717.35 L319.55 716.86 L321.98 719.89 L319.70 725.86 L315.46 725.12 L316.72 721.49 L315.90 719.71 L306.45 718.37 L302.93 721.21 L298.45 719.47 L300.81 717.75 L304.42 717.72 L307.28 716.21 L310.66 711.49 L307.10 708.40 L309.70 706.30 Z M298.81 703.44 L302.87 704.71 L299.54 708.60 L297.11 705.92 L298.81 703.44 Z M271.45 703.81 L276.23 706.08 L278.23 710.11 L276.87 714.80 L275.16 716.93 L269.42 718.80 L260.73 716.69 L259.44 714.46 L263.42 707.84 L266.31 708.57 L267.77 706.78 L270.71 706.62 L271.45 703.81 Z M545.41 701.72 L545.64 704.48 L550.04 704.50 L553.23 707.49 L553.16 712.79 L549.28 711.54 L549.04 709.20 L540.06 708.02 L543.38 701.51 L545.41 701.72 Z M549.16 699.29 L550.61 704.17 L546.67 704.02 L546.02 700.97 L549.16 699.29 Z M296.33 694.58 L298.93 695.75 L296.01 703.65 L293.05 707.61 L291.95 701.91 L294.07 696.17 L296.33 694.58 Z M302.02 690.87 L304.02 691.04 L305.47 696.46 L301.96 695.78 L302.02 690.87 Z M283.06 687.13 L286.42 687.27 L289.34 689.43 L291.91 694.55 L289.77 701.94 L287.05 703.41 L281.41 701.04 L283.32 698.01 L282.99 691.84 L280.15 692.91 L277.23 691.86 L280.07 688.64 L283.06 687.13 Z M285.23 681.46 L288.79 681.88 L294.10 685.08 L293.31 687.59 L285.51 685.95 L282.99 682.72 L285.23 681.46 Z M287.70 665.95 L284.97 667.08 L282.15 670.93 L281.00 674.50 L280.60 680.93 L276.04 682.61 L273.08 681.20 L269.06 680.97 L267.99 676.57 L269.12 673.42 L275.08 671.77 L280.50 666.07 L287.70 665.95 Z M264.60 625.74 L267.78 629.59 L263.84 629.85 L264.60 625.74 Z M519.30 635.83 L522.31 643.26 L524.63 644.40 L526.00 648.90 L526.52 657.86 L538.56 668.47 L538.47 673.32 L542.44 677.23 L545.49 677.88 L545.95 680.81 L550.60 682.91 L551.13 686.73 L553.62 688.96 L552.08 694.26 L549.92 696.09 L549.25 698.30 L543.97 700.61 L539.41 704.64 L537.84 707.55 L529.54 712.79 L525.86 707.38 L521.48 706.83 L525.32 711.70 L521.31 714.88 L524.74 719.51 L530.02 722.97 L533.07 720.42 L534.47 721.78 L539.13 717.71 L544.90 718.55 L549.50 716.71 L551.63 717.63 L550.82 726.23 L548.46 731.31 L546.76 732.86 L548.25 735.15 L547.50 740.17 L540.02 743.02 L536.38 739.33 L532.46 736.62 L529.44 744.00 L526.93 746.47 L526.82 749.04 L529.57 756.59 L526.34 757.73 L521.29 755.50 L518.11 757.00 L515.06 753.56 L514.92 748.70 L517.55 741.61 L519.51 740.69 L521.36 736.22 L519.64 735.46 L515.99 727.27 L510.49 726.72 L512.91 722.73 L510.34 719.42 L508.99 714.29 L507.01 714.94 L502.12 720.35 L490.41 723.96 L493.55 726.46 L489.45 729.16 L488.09 732.33 L490.47 734.42 L489.83 736.39 L485.90 739.17 L488.75 744.65 L498.79 747.65 L498.36 751.92 L502.97 751.85 L502.38 754.97 L504.51 755.44 L507.64 766.42 L504.45 768.88 L499.52 767.92 L497.57 769.20 L492.17 766.74 L489.30 768.35 L491.52 772.06 L495.75 773.64 L494.05 777.50 L490.42 782.37 L486.83 782.68 L486.41 785.74 L478.86 787.96 L480.22 793.10 L477.47 793.82 L471.81 787.35 L468.60 786.40 L471.12 783.62 L466.88 779.66 L459.10 779.42 L456.62 777.26 L452.48 779.13 L447.04 778.87 L444.93 777.89 L443.15 774.61 L443.35 772.35 L448.43 767.86 L452.89 765.75 L453.04 760.01 L457.50 756.18 L458.78 759.71 L462.06 757.01 L462.90 750.42 L465.83 744.85 L470.38 743.18 L471.67 747.05 L470.55 751.65 L476.30 753.07 L476.78 749.99 L479.42 745.23 L477.82 737.24 L474.49 737.70 L472.71 741.15 L469.10 739.32 L467.61 740.92 L463.83 734.43 L459.08 739.89 L457.23 745.64 L454.36 748.15 L447.86 747.82 L445.76 746.28 L442.37 750.95 L436.06 753.50 L433.63 757.30 L423.92 762.28 L426.31 763.97 L423.73 766.03 L421.97 770.37 L422.83 775.88 L420.27 775.33 L418.08 777.54 L420.44 780.13 L418.66 782.84 L420.99 785.46 L417.36 788.59 L414.50 792.63 L412.64 791.77 L404.64 791.03 L406.35 796.16 L400.30 792.82 L395.29 792.50 L390.48 789.25 L390.80 785.25 L389.90 780.81 L390.69 777.32 L390.92 770.41 L387.46 764.39 L386.50 771.61 L386.94 773.16 L385.40 778.41 L385.23 784.29 L382.40 785.32 L383.62 788.27 L380.24 793.12 L375.38 794.10 L372.66 796.59 L367.89 797.45 L362.30 801.00 L362.77 808.97 L359.93 811.08 L359.94 815.18 L357.12 815.98 L352.43 815.70 L350.32 819.01 L345.85 819.89 L344.99 816.09 L347.41 813.36 L346.23 808.48 L339.91 808.90 L339.91 804.70 L342.19 803.30 L341.42 800.72 L345.75 798.75 L344.33 796.49 L341.25 795.05 L339.16 796.51 L336.14 792.32 L337.67 790.06 L335.72 787.40 L338.33 781.88 L336.48 777.31 L331.92 775.07 L331.58 773.09 L326.91 775.13 L323.35 771.73 L320.51 772.08 L315.86 769.84 L312.61 771.03 L311.25 766.66 L306.85 765.60 L307.87 759.50 L305.42 758.83 L304.17 754.07 L302.93 753.26 L303.40 747.80 L306.05 744.55 L306.09 741.49 L308.01 736.06 L310.28 735.41 L316.05 739.75 L318.57 746.14 L316.86 747.64 L317.17 751.44 L321.51 757.65 L322.82 761.63 L332.30 766.71 L331.31 762.45 L322.37 756.98 L319.84 750.99 L317.47 749.25 L321.45 746.94 L324.76 741.07 L321.18 739.79 L323.44 737.11 L323.24 734.53 L334.69 731.58 L333.43 728.62 L326.85 731.58 L321.53 731.96 L320.39 730.06 L321.76 726.08 L324.69 721.80 L327.78 719.06 L325.78 715.90 L326.90 713.91 L324.92 712.10 L327.39 708.22 L325.28 706.67 L324.54 701.77 L325.67 699.06 L323.19 697.35 L321.17 705.21 L317.34 707.65 L315.18 706.68 L313.75 702.37 L309.43 698.42 L311.30 694.56 L315.69 697.41 L319.92 694.52 L317.52 691.63 L324.89 687.52 L323.60 683.52 L318.72 685.03 L317.49 679.26 L314.86 675.97 L310.43 683.40 L308.84 681.26 L303.76 682.40 L306.06 685.24 L303.07 689.79 L298.28 687.83 L299.68 684.04 L297.62 681.57 L291.55 681.58 L287.56 679.90 L288.52 673.19 L292.38 671.56 L299.26 674.15 L301.35 672.07 L303.31 666.23 L305.70 665.50 L314.35 667.67 L317.62 664.62 L317.56 671.08 L316.02 675.40 L321.42 679.10 L326.10 678.13 L327.79 680.50 L326.49 686.10 L333.41 681.93 L335.16 678.77 L333.22 676.74 L336.47 675.37 L334.15 672.83 L329.86 672.51 L327.14 667.44 L320.51 661.66 L316.89 657.03 L311.43 659.64 L309.88 650.69 L312.11 645.73 L314.22 646.10 L314.11 639.64 L319.84 639.40 L323.01 636.41 L323.10 632.18 L326.29 624.85 L327.59 617.54 L330.19 614.08 L334.43 613.82 L339.53 614.84 L341.20 617.18 L340.00 621.87 L346.32 628.39 L346.01 632.70 L348.11 636.10 L351.39 635.00 L358.03 636.49 L356.23 633.03 L360.02 631.01 L363.41 633.59 L366.71 633.82 L370.29 628.07 L375.61 628.41 L376.47 625.62 L378.92 625.64 L380.80 623.56 L380.56 620.23 L384.21 615.07 L383.57 610.09 L386.21 607.22 L394.29 606.74 L396.37 603.53 L400.38 607.24 L403.32 608.06 L409.20 611.79 L408.08 613.24 L409.86 616.22 L413.39 618.17 L413.82 620.13 L418.83 620.20 L421.07 618.63 L419.98 614.26 L426.95 608.66 L430.53 607.32 L430.97 612.70 L432.79 613.54 L431.67 619.44 L429.82 621.11 L432.42 623.45 L434.09 622.10 L436.32 625.45 L435.50 630.82 L433.35 630.19 L432.46 634.15 L434.96 634.37 L443.76 637.54 L448.80 634.66 L452.38 631.60 L457.69 634.58 L459.97 634.52 L461.25 630.78 L467.49 635.34 L472.00 634.88 L474.80 636.89 L483.06 633.60 L487.76 636.85 L495.40 626.62 L501.98 625.33 L506.86 626.75 L511.63 630.67 L519.30 635.83 Z M409.64 644.94 L406.77 647.12 L404.24 646.53 L398.49 650.16 L393.03 652.24 L384.82 649.41 L386.19 645.78 L381.70 646.24 L378.98 650.77 L378.65 653.47 L376.17 654.25 L373.59 652.91 L372.11 656.83 L369.14 657.16 L371.00 661.24 L368.20 662.13 L367.80 670.15 L372.18 672.82 L373.60 671.73 L382.31 672.65 L385.89 675.53 L388.56 682.41 L391.31 680.96 L395.20 682.53 L401.21 677.87 L403.84 678.56 L412.08 675.65 L413.76 678.54 L416.94 678.80 L419.37 675.78 L422.76 674.94 L426.31 669.44 L426.12 663.88 L428.23 661.63 L425.11 657.88 L420.80 658.12 L413.77 648.30 L413.51 646.31 L409.64 644.94 Z M330.38 739.52 L326.33 739.57 L324.73 743.11 L335.27 745.58 L335.03 749.03 L338.34 754.17 L339.61 750.40 L342.07 752.99 L350.00 754.94 L349.45 750.01 L347.65 745.43 L342.80 740.30 L338.29 739.71 L336.37 741.38 L332.44 741.11 L330.38 739.52 Z" fill="rgb(239,249,255)"><title>전라남도 · 인구 1,790,352명 · 인구밀도 146명/km²</title></path><path class="province" d="M310.93 578.86 L312.50 580.24 L311.04 583.41 L308.48 584.31 L304.17 588.07 L301.85 585.23 L305.38 584.73 L306.30 582.07 L308.88 581.91 L310.93 578.86 Z M529.17 497.54 L531.90 499.75 L532.73 502.80 L536.88 498.77 L538.82 499.75 L540.31 503.96 L544.44 504.11 L553.73 507.39 L555.85 505.16 L564.46 502.87 L568.31 505.90 L568.12 510.58 L571.24 512.70 L573.49 520.69 L569.17 523.14 L570.05 525.54 L564.15 530.11 L562.42 534.23 L560.77 533.71 L557.14 536.65 L553.73 537.00 L551.16 539.32 L546.81 538.53 L542.56 546.88 L539.42 548.42 L533.06 553.92 L533.00 562.79 L530.34 564.92 L529.37 570.10 L527.61 571.43 L526.30 575.12 L527.59 579.53 L525.02 581.56 L524.73 585.59 L520.93 589.17 L521.53 591.18 L526.94 594.88 L527.30 596.56 L531.62 603.65 L529.01 604.96 L528.84 607.91 L530.28 610.16 L533.97 610.50 L533.14 616.22 L529.58 618.35 L524.67 625.48 L526.74 629.46 L526.37 631.55 L521.73 635.36 L519.30 635.83 L511.63 630.67 L506.86 626.75 L501.98 625.33 L495.40 626.62 L487.76 636.85 L483.06 633.60 L474.80 636.89 L472.00 634.88 L467.49 635.34 L461.25 630.78 L459.97 634.52 L457.69 634.58 L452.38 631.60 L448.80 634.66 L443.76 637.54 L434.96 634.37 L432.46 634.15 L433.35 630.19 L435.50 630.82 L436.32 625.45 L434.09 622.10 L432.42 623.45 L429.82 621.11 L431.67 619.44 L432.79 613.54 L430.97 612.70 L430.53 607.32 L426.95 608.66 L419.98 614.26 L421.07 618.63 L418.83 620.20 L413.82 620.13 L413.39 618.17 L409.86 616.22 L408.08 613.24 L409.20 611.79 L403.32 608.06 L400.38 607.24 L396.37 603.53 L394.29 606.74 L386.21 607.22 L383.57 610.09 L384.21 615.07 L380.56 620.23 L380.80 623.56 L378.92 625.64 L376.47 625.62 L375.61 628.41 L370.29 628.07 L366.71 633.82 L363.41 633.59 L360.02 631.01 L356.23 633.03 L358.03 636.49 L351.39 635.00 L348.11 636.10 L346.01 632.70 L346.32 628.39 L340.00 621.87 L341.20 617.18 L339.53 614.84 L334.43 613.82 L331.40 612.32 L333.53 609.48 L340.30 597.53 L346.17 594.93 L349.86 596.05 L353.22 593.50 L359.88 593.27 L362.06 590.68 L362.19 588.32 L367.21 588.35 L369.94 591.04 L371.09 586.37 L365.27 584.03 L362.18 585.57 L355.32 584.62 L349.73 585.01 L347.61 586.60 L341.65 585.38 L337.70 582.07 L337.29 576.64 L340.44 572.70 L343.07 572.38 L348.38 566.92 L352.97 564.85 L354.56 565.50 L359.69 561.00 L363.77 555.79 L363.08 548.46 L366.41 546.83 L375.61 546.51 L380.36 547.48 L387.17 550.50 L388.31 546.14 L381.16 543.02 L375.61 539.13 L374.45 536.99 L380.80 534.27 L390.13 534.58 L391.87 533.01 L392.25 529.33 L389.50 527.76 L387.19 530.20 L381.68 529.73 L379.83 530.79 L375.59 529.34 L371.87 529.17 L370.45 531.21 L361.85 530.73 L361.07 525.17 L361.82 520.42 L358.57 519.54 L347.65 520.88 L346.47 515.26 L354.22 514.37 L366.37 513.83 L370.25 512.89 L372.48 510.11 L379.89 510.88 L381.43 509.83 L383.70 505.70 L388.05 504.22 L393.75 503.80 L396.96 501.44 L402.50 498.95 L404.35 493.32 L404.09 489.42 L407.20 484.36 L412.29 484.61 L417.78 481.50 L423.22 483.58 L425.39 482.82 L428.69 485.12 L432.96 484.06 L434.87 492.96 L438.17 495.79 L446.70 497.29 L447.27 494.17 L452.42 494.70 L454.17 492.84 L457.48 494.31 L458.32 491.70 L465.12 492.72 L465.98 489.43 L469.55 490.39 L473.00 489.41 L474.92 487.08 L480.21 486.22 L482.90 490.26 L483.73 493.68 L483.91 500.28 L486.08 503.74 L490.46 508.55 L494.57 505.16 L497.57 508.74 L499.43 512.94 L501.43 512.22 L504.61 513.99 L507.58 513.56 L512.14 511.42 L513.21 507.85 L512.84 503.98 L521.59 505.49 L523.13 507.71 L525.96 508.61 L528.03 502.56 L526.08 502.40 L526.98 497.84 L529.17 497.54 Z" fill="rgb(238,248,255)"><title>전라북도 · 인구 1,769,607명 · 인구밀도 219명/km²</title></path><path class="province" d="M319.68 445.33 L320.16 449.97 L316.88 449.18 L319.68 445.33 Z M332.03 439.68 L336.30 445.42 L326.06 443.06 L324.32 440.63 L332.03 439.68 Z M317.00 436.24 L316.72 440.92 L314.11 439.25 L317.00 436.24 Z M320.22 398.38 L324.17 399.55 L326.44 403.93 L325.13 409.73 L326.10 415.44 L331.11 425.82 L332.44 433.76 L329.70 436.22 L327.69 434.61 L323.60 433.88 L321.86 435.29 L316.45 430.10 L314.60 424.78 L315.82 420.49 L313.71 408.31 L311.93 406.40 L311.98 403.42 L316.83 399.17 L320.22 398.38 Z M331.25 316.06 L334.93 317.98 L330.45 319.91 L331.25 316.06 Z M409.89 345.18 L424.07 339.62 L430.02 340.92 L434.75 338.89 L436.92 339.09 L443.38 332.86 L446.13 334.20 L448.43 333.06 L455.93 336.46 L457.86 336.59 L460.85 340.57 L464.75 342.91 L469.03 343.67 L472.24 347.21 L475.23 348.77 L474.89 352.81 L479.84 354.34 L479.38 358.71 L483.05 359.11 L487.24 361.77 L490.55 365.16 L489.45 367.17 L492.23 369.33 L492.23 372.08 L489.73 373.94 L488.21 371.70 L479.87 372.92 L480.60 376.61 L478.01 376.60 L475.27 378.68 L475.24 381.61 L471.56 384.16 L465.42 383.40 L458.23 377.98 L451.55 376.38 L446.76 381.31 L448.26 384.06 L451.14 383.96 L451.72 386.45 L450.15 388.90 L450.65 394.24 L450.28 399.60 L454.57 401.55 L456.41 404.22 L456.53 407.13 L453.08 412.35 L454.56 414.88 L452.77 416.77 L458.32 426.34 L457.77 429.50 L461.74 433.08 L467.02 435.64 L471.02 434.49 L470.80 441.73 L469.16 444.19 L470.29 446.44 L467.32 450.40 L467.24 456.04 L465.64 458.37 L470.80 461.65 L471.11 467.05 L476.40 469.67 L477.77 472.99 L480.56 475.54 L482.59 471.41 L484.50 469.93 L483.78 461.90 L485.82 460.40 L488.53 461.75 L488.05 464.32 L490.38 467.53 L491.63 471.22 L497.28 474.64 L501.49 470.87 L501.32 469.33 L505.45 466.63 L509.61 466.15 L511.73 464.66 L514.69 466.40 L519.58 467.54 L522.64 470.39 L521.82 474.44 L523.28 480.56 L521.39 485.61 L525.92 490.84 L525.97 492.92 L529.17 497.54 L526.98 497.84 L526.08 502.40 L528.03 502.56 L525.96 508.61 L523.13 507.71 L521.59 505.49 L512.84 503.98 L513.21 507.85 L512.14 511.42 L507.58 513.56 L504.61 513.99 L501.43 512.22 L499.43 512.94 L497.57 508.74 L494.57 505.16 L490.46 508.55 L486.08 503.74 L483.91 500.28 L483.73 493.68 L482.90 490.26 L480.21 486.22 L474.92 487.08 L473.00 489.41 L469.55 490.39 L465.98 489.43 L465.12 492.72 L458.32 491.70 L457.48 494.31 L454.17 492.84 L452.42 494.70 L447.27 494.17 L446.70 497.29 L438.17 495.79 L434.87 492.96 L432.96 484.06 L428.69 485.12 L425.39 482.82 L423.22 483.58 L417.78 481.50 L412.29 484.61 L407.20 484.36 L404.09 489.42 L404.35 493.32 L402.50 498.95 L396.96 501.44 L393.75 503.80 L388.05 504.22 L383.70 505.70 L381.43 509.83 L369.29 507.99 L370.41 504.22 L366.59 499.85 L364.67 499.83 L364.84 493.05 L360.37 490.09 L355.54 484.78 L352.76 486.35 L349.16 483.01 L345.04 482.39 L346.95 476.22 L350.00 474.10 L347.85 469.63 L347.98 466.40 L350.67 462.00 L347.51 455.92 L345.87 455.27 L343.47 450.85 L351.47 446.60 L344.50 440.74 L339.79 440.24 L341.02 434.86 L342.52 432.22 L340.15 427.54 L338.66 418.33 L340.48 416.05 L336.82 411.89 L334.31 403.36 L335.05 401.35 L339.13 399.69 L338.73 397.58 L335.94 395.93 L337.76 390.89 L336.68 388.96 L333.50 388.51 L333.87 392.66 L330.56 400.67 L328.40 400.25 L325.79 397.37 L320.84 395.83 L320.25 388.13 L316.92 388.30 L318.00 393.57 L319.38 395.90 L313.61 401.32 L309.06 403.68 L307.32 401.48 L307.81 397.37 L309.69 395.33 L307.89 389.16 L304.27 387.27 L303.99 383.07 L305.76 381.54 L305.47 377.81 L302.66 379.31 L298.68 383.84 L295.86 383.89 L293.49 387.15 L289.48 386.48 L282.54 388.28 L282.44 384.70 L285.21 384.89 L285.10 381.83 L289.21 379.14 L295.19 381.38 L297.38 378.51 L294.38 377.69 L291.41 372.86 L288.17 372.03 L285.30 373.29 L286.10 376.95 L283.42 379.15 L281.17 377.62 L283.05 375.08 L277.81 369.16 L282.34 368.90 L284.46 366.28 L287.11 359.56 L285.01 357.13 L287.90 355.70 L289.88 357.77 L292.84 355.31 L292.01 351.93 L295.34 346.01 L301.90 344.01 L300.77 348.17 L297.35 349.60 L300.83 352.66 L302.55 349.83 L305.33 349.10 L307.67 345.50 L309.16 340.68 L307.70 334.37 L311.67 332.61 L312.54 336.10 L310.74 338.04 L310.64 342.10 L313.55 345.07 L313.65 347.52 L309.38 356.47 L313.08 357.21 L307.17 361.03 L309.82 362.70 L316.47 361.06 L313.76 357.48 L314.28 354.00 L317.16 355.46 L320.64 355.05 L321.97 352.54 L320.72 350.31 L325.89 347.35 L328.21 344.73 L323.49 338.07 L315.85 335.20 L316.59 332.42 L314.46 329.04 L322.62 325.69 L330.86 325.16 L334.93 326.77 L339.41 333.56 L340.82 331.00 L335.41 323.21 L342.73 315.98 L346.21 317.05 L347.77 319.91 L359.06 324.81 L365.85 328.22 L376.49 327.95 L378.78 329.14 L388.93 332.15 L388.88 333.79 L392.46 341.62 L394.12 341.50 L394.82 346.69 L396.43 348.51 L397.30 353.01 L399.94 350.19 L405.29 348.26 L410.41 347.83 L409.89 345.18 Z" fill="rgb(238,248,255)"><title>충청남도 · 인구 2,181,416명 · 인구밀도 266명/km²</title></path><path class="province" d="M695.16 315.95 L691.61 320.78 L683.98 319.88 L680.93 322.14 L681.92 324.96 L677.55 329.22 L672.64 330.27 L672.47 332.12 L664.24 337.44 L663.70 339.82 L660.75 341.00 L660.50 345.74 L657.87 350.37 L661.77 352.55 L661.93 355.38 L657.27 362.22 L650.92 361.75 L648.49 364.20 L643.13 361.21 L640.99 361.52 L636.98 358.02 L634.70 353.95 L628.03 351.04 L626.67 355.62 L623.42 355.45 L624.18 361.61 L615.48 360.65 L611.29 358.06 L606.81 360.86 L605.92 363.24 L602.23 363.56 L598.05 361.36 L597.46 365.54 L593.76 373.85 L599.73 378.56 L600.12 381.18 L596.32 380.98 L592.08 377.80 L588.87 379.48 L586.29 379.32 L582.11 375.77 L579.99 379.19 L577.26 381.35 L577.25 383.72 L570.01 384.09 L577.37 388.85 L578.37 391.42 L577.26 397.45 L570.35 395.35 L567.84 390.63 L565.98 394.37 L563.58 394.64 L563.84 398.39 L559.61 398.43 L555.33 402.28 L559.66 406.00 L565.78 406.49 L567.72 408.87 L567.73 411.95 L572.19 414.43 L573.18 417.50 L568.92 422.44 L569.20 426.03 L567.69 430.33 L569.24 433.18 L567.68 436.07 L570.62 444.90 L569.05 447.18 L564.24 449.82 L562.44 453.60 L564.12 459.77 L568.77 459.91 L570.78 456.78 L577.14 459.32 L580.13 463.26 L583.18 464.34 L585.53 461.87 L590.13 460.42 L596.10 463.25 L593.36 466.22 L596.69 470.78 L597.04 473.40 L594.72 474.66 L590.66 471.90 L586.16 473.49 L584.46 475.72 L587.74 482.12 L586.32 486.55 L583.02 488.45 L581.55 492.70 L582.13 497.53 L577.95 500.76 L574.77 500.14 L572.66 502.89 L568.31 505.90 L564.46 502.87 L555.85 505.16 L553.73 507.39 L544.44 504.11 L540.31 503.96 L538.82 499.75 L536.88 498.77 L532.73 502.80 L531.90 499.75 L529.17 497.54 L525.97 492.92 L525.92 490.84 L521.39 485.61 L523.28 480.56 L521.82 474.44 L522.64 470.39 L519.58 467.54 L514.69 466.40 L511.73 464.66 L509.61 466.15 L505.45 466.63 L504.37 462.77 L506.19 457.78 L506.83 449.29 L511.03 442.73 L510.67 439.49 L515.66 437.33 L513.57 433.36 L509.20 433.08 L507.05 435.65 L504.87 431.18 L507.07 428.16 L503.25 426.61 L498.98 428.02 L496.20 426.82 L490.70 427.00 L490.96 421.97 L489.56 420.46 L491.40 419.87 L491.73 414.58 L490.57 411.42 L487.57 411.28 L485.78 407.98 L479.98 407.43 L477.94 404.18 L475.23 403.72 L474.05 397.89 L470.51 394.32 L471.78 390.85 L473.97 390.08 L475.15 385.85 L471.56 384.16 L475.24 381.61 L475.27 378.68 L478.01 376.60 L480.60 376.61 L479.87 372.92 L488.21 371.70 L489.73 373.94 L492.23 372.08 L492.23 369.33 L489.45 367.17 L490.55 365.16 L487.24 361.77 L483.05 359.11 L479.38 358.71 L479.84 354.34 L474.89 352.81 L475.23 348.77 L472.24 347.21 L475.41 340.79 L481.02 338.02 L482.05 336.51 L486.76 336.71 L490.58 333.75 L487.81 330.71 L489.30 328.25 L495.14 327.53 L499.76 324.12 L499.72 319.93 L504.43 317.99 L506.52 319.17 L509.23 317.28 L515.26 319.80 L517.55 319.29 L517.47 316.40 L523.14 312.30 L528.09 310.34 L529.19 302.19 L537.14 303.28 L542.31 294.40 L543.71 294.58 L545.38 289.63 L547.20 288.41 L546.54 289.56 L548.18 295.79 L550.46 299.22 L553.96 301.55 L558.13 301.18 L565.83 299.34 L567.59 297.94 L572.39 300.21 L575.63 297.81 L578.12 293.55 L575.57 286.76 L579.92 282.93 L586.00 280.86 L591.56 283.37 L591.65 285.34 L594.87 288.65 L593.32 291.05 L594.91 293.49 L601.34 292.54 L606.70 290.03 L608.94 287.58 L613.79 288.61 L616.77 288.03 L616.95 285.53 L621.26 282.60 L624.55 284.11 L625.83 286.36 L629.81 286.38 L632.46 289.98 L640.06 287.18 L642.99 288.62 L641.75 292.00 L633.65 296.54 L631.75 298.66 L633.18 301.04 L636.43 302.72 L642.54 300.49 L643.58 299.12 L654.06 301.13 L653.35 304.49 L657.76 307.40 L665.58 307.86 L668.08 305.99 L672.28 307.17 L672.67 309.06 L676.47 311.48 L680.42 311.42 L685.26 313.63 L691.22 314.19 L695.16 315.95 Z" fill="rgb(238,248,255)"><title>충청북도 · 인구 1,595,058명 · 인구밀도 215명/km²</title></path><path class="province" d="M811.64 301.22 L807.68 301.41 L801.80 304.49 L800.25 307.04 L796.57 306.57 L795.59 309.24 L792.93 310.40 L788.98 314.51 L790.14 319.75 L783.97 320.46 L775.09 313.00 L767.74 309.58 L764.57 310.93 L762.68 315.54 L749.30 312.52 L745.57 313.77 L743.00 310.56 L739.36 311.11 L735.08 319.70 L731.72 319.71 L726.97 318.37 L723.76 313.65 L720.75 313.75 L716.90 311.90 L713.62 316.22 L711.49 317.40 L713.08 321.46 L711.47 322.69 L708.67 320.56 L703.02 320.37 L701.17 318.20 L695.16 315.95 L691.22 314.19 L685.26 313.63 L680.42 311.42 L676.47 311.48 L672.67 309.06 L672.28 307.17 L668.08 305.99 L665.58 307.86 L657.76 307.40 L653.35 304.49 L654.06 301.13 L643.58 299.12 L642.54 300.49 L636.43 302.72 L633.18 301.04 L631.75 298.66 L633.65 296.54 L641.75 292.00 L642.99 288.62 L640.06 287.18 L632.46 289.98 L629.81 286.38 L625.83 286.36 L624.55 284.11 L621.26 282.60 L616.95 285.53 L616.77 288.03 L613.79 288.61 L608.94 287.58 L606.70 290.03 L601.34 292.54 L594.91 293.49 L593.32 291.05 L594.87 288.65 L591.65 285.34 L591.56 283.37 L586.00 280.86 L579.92 282.93 L575.57 286.76 L578.12 293.55 L575.63 297.81 L572.39 300.21 L567.59 297.94 L565.83 299.34 L558.13 301.18 L553.96 301.55 L550.46 299.22 L548.18 295.79 L546.54 289.56 L547.20 288.41 L547.35 282.80 L548.90 280.88 L548.33 273.64 L550.58 271.81 L549.14 267.76 L549.09 261.03 L552.02 260.26 L552.14 257.03 L554.84 250.61 L556.37 249.73 L555.09 243.50 L551.55 238.34 L551.46 235.71 L556.77 230.44 L562.66 229.71 L563.81 227.13 L557.83 225.04 L554.54 221.28 L550.19 221.71 L548.19 220.01 L540.69 221.08 L538.79 218.54 L531.73 214.54 L527.51 210.84 L523.38 209.26 L519.65 212.57 L516.29 213.42 L512.69 210.77 L515.28 207.40 L514.84 203.04 L516.85 196.56 L513.31 196.92 L507.89 194.80 L513.92 189.41 L510.17 183.76 L512.49 180.53 L510.83 177.93 L511.96 174.56 L516.85 172.08 L520.44 168.39 L523.18 168.59 L525.90 162.78 L525.25 156.80 L523.49 153.94 L513.89 151.57 L514.46 149.67 L513.12 145.65 L506.87 145.84 L502.08 144.66 L499.76 142.80 L497.43 135.01 L497.96 132.83 L496.98 126.06 L495.33 124.78 L492.38 127.17 L490.84 125.24 L487.59 124.93 L477.38 128.42 L475.76 124.64 L471.16 124.55 L469.95 120.77 L471.82 118.02 L472.17 113.54 L469.18 112.65 L466.70 116.04 L461.36 119.01 L455.91 116.50 L454.18 112.13 L452.06 109.42 L452.57 106.81 L451.41 103.47 L449.13 101.60 L446.15 103.40 L442.85 101.66 L443.48 97.45 L442.71 92.58 L447.30 89.35 L448.27 85.82 L450.89 84.88 L454.61 88.00 L457.03 87.69 L464.68 84.07 L467.21 85.34 L472.93 86.14 L475.65 88.05 L480.18 85.29 L481.78 85.85 L488.30 83.84 L494.29 84.87 L498.31 87.99 L502.60 87.83 L504.47 90.45 L508.02 90.44 L513.45 86.53 L521.05 83.82 L524.13 83.71 L529.28 85.82 L537.76 85.09 L539.35 83.23 L544.28 84.25 L547.01 82.35 L552.05 81.34 L556.10 86.52 L562.87 85.69 L569.53 83.19 L576.25 84.35 L584.76 87.40 L598.84 88.67 L613.10 81.77 L623.73 76.15 L628.22 72.46 L629.19 70.61 L634.63 66.49 L637.77 59.80 L640.04 42.96 L639.31 37.95 L641.01 34.75 L645.89 34.00 L653.44 42.48 L654.90 47.13 L657.71 50.60 L657.70 53.60 L660.45 58.80 L665.05 63.56 L663.08 64.43 L663.42 67.45 L665.66 71.01 L672.84 78.07 L674.57 84.14 L678.61 88.54 L681.52 96.80 L684.97 101.64 L684.41 103.82 L686.14 109.63 L688.14 112.31 L688.19 118.24 L692.50 124.56 L697.61 129.01 L699.37 133.78 L703.40 138.27 L707.30 141.38 L708.87 144.81 L714.95 153.96 L717.80 155.75 L717.78 157.68 L725.04 164.33 L724.32 166.77 L732.06 175.01 L732.32 176.78 L750.05 193.15 L754.33 198.83 L761.32 204.81 L761.43 207.52 L759.31 210.74 L760.95 214.70 L771.26 222.92 L772.01 226.38 L770.54 229.63 L772.08 233.03 L778.25 241.05 L782.78 244.86 L784.45 252.13 L788.27 255.58 L793.07 258.49 L793.17 261.69 L795.80 265.36 L796.22 269.11 L801.53 272.53 L801.30 274.48 L805.94 276.82 L805.58 279.48 L810.46 284.99 L807.91 286.78 L809.00 289.25 L807.71 292.45 L807.97 295.50 L811.64 301.22 Z" fill="rgb(240,249,255)"><title>강원도 · 인구 1,539,274명 · 인구밀도 91명/km²</title></path><path class="province" d="M360.69 271.60 L356.71 274.15 L354.50 276.91 L358.86 280.08 L360.81 279.97 L363.07 284.78 L367.60 286.81 L367.04 289.49 L361.28 287.98 L359.86 290.06 L356.95 287.70 L354.22 290.67 L350.28 290.29 L349.84 286.87 L352.91 283.76 L353.32 281.21 L350.97 276.89 L354.10 276.63 L355.94 273.97 L360.69 271.60 Z M547.20 288.41 L545.38 289.63 L543.71 294.58 L542.31 294.40 L537.14 303.28 L529.19 302.19 L528.09 310.34 L523.14 312.30 L517.47 316.40 L517.55 319.29 L515.26 319.80 L509.23 317.28 L506.52 319.17 L504.43 317.99 L499.72 319.93 L499.76 324.12 L495.14 327.53 L489.30 328.25 L487.81 330.71 L490.58 333.75 L486.76 336.71 L482.05 336.51 L481.02 338.02 L475.41 340.79 L472.24 347.21 L469.03 343.67 L464.75 342.91 L460.85 340.57 L457.86 336.59 L455.93 336.46 L448.43 333.06 L446.13 334.20 L443.38 332.86 L436.92 339.09 L434.75 338.89 L430.02 340.92 L424.07 339.62 L409.89 345.18 L409.20 341.35 L406.33 339.51 L402.61 340.13 L402.31 337.19 L399.67 335.26 L396.25 330.22 L396.06 328.61 L391.71 326.41 L390.31 322.56 L384.08 322.54 L383.65 318.94 L385.77 315.47 L387.23 309.14 L385.38 307.74 L386.98 304.58 L391.27 304.38 L392.84 300.29 L390.52 295.94 L388.50 297.88 L383.35 297.73 L380.33 302.60 L373.85 306.73 L371.33 302.76 L372.88 300.76 L369.30 298.35 L370.21 289.87 L372.04 287.15 L369.93 284.75 L373.57 280.03 L381.31 282.28 L385.07 281.42 L390.36 283.37 L390.48 279.19 L396.31 275.28 L392.78 273.92 L387.61 275.17 L379.92 272.81 L379.47 270.80 L374.50 267.07 L373.85 264.34 L375.89 263.23 L381.72 255.86 L384.44 250.90 L387.03 250.05 L388.56 245.77 L386.88 241.98 L382.68 239.24 L383.12 234.25 L385.59 233.82 L386.82 226.95 L387.38 227.94 L395.72 229.41 L396.76 231.95 L394.46 238.04 L395.72 241.23 L398.56 241.24 L403.19 237.95 L408.92 248.81 L412.72 246.20 L414.91 248.48 L418.79 247.55 L425.38 242.78 L426.63 244.94 L430.83 244.71 L430.62 247.53 L433.36 249.83 L435.57 249.74 L440.89 244.32 L444.04 243.70 L448.79 241.07 L451.23 236.77 L447.73 235.25 L451.53 228.62 L454.12 228.32 L454.60 225.72 L453.29 222.32 L441.37 225.88 L441.42 221.55 L444.13 217.77 L442.50 210.48 L439.93 209.51 L440.36 202.37 L438.20 201.05 L433.03 202.60 L427.43 200.20 L426.12 203.18 L423.67 204.47 L421.49 208.61 L422.36 211.82 L420.77 212.89 L416.20 207.87 L410.50 210.54 L408.62 216.28 L408.77 219.50 L404.51 222.32 L400.43 223.04 L395.44 220.27 L393.00 217.93 L391.07 221.95 L382.88 219.82 L379.87 220.04 L375.51 215.42 L368.72 211.68 L365.31 213.54 L363.92 217.35 L360.78 217.91 L354.89 220.83 L351.88 216.91 L351.12 213.67 L347.75 208.96 L348.79 206.52 L346.77 204.67 L347.48 199.82 L346.04 198.07 L347.27 193.46 L347.57 191.58 L345.40 188.20 L348.96 187.30 L352.04 187.83 L353.94 190.19 L360.93 190.76 L365.75 186.11 L369.55 183.97 L371.48 176.53 L369.23 175.11 L374.33 169.95 L371.12 166.38 L372.04 164.38 L370.10 160.12 L371.31 153.87 L374.18 155.98 L378.09 156.69 L383.04 154.52 L382.28 150.73 L386.07 148.48 L388.88 148.89 L391.51 146.91 L396.94 147.02 L395.89 143.60 L397.31 139.61 L400.87 140.03 L403.97 142.38 L405.26 138.63 L407.29 136.41 L407.36 132.21 L403.06 131.13 L400.32 128.47 L396.61 131.45 L395.62 129.70 L391.47 130.80 L389.65 127.73 L383.60 122.48 L387.16 117.58 L396.32 109.66 L404.04 105.13 L407.70 108.51 L412.67 108.69 L417.05 107.41 L419.10 109.74 L422.20 107.13 L420.78 103.13 L423.31 102.63 L429.06 98.91 L436.34 96.46 L442.71 92.58 L443.48 97.45 L442.85 101.66 L446.15 103.40 L449.13 101.60 L451.41 103.47 L452.57 106.81 L452.06 109.42 L454.18 112.13 L455.91 116.50 L461.36 119.01 L466.70 116.04 L469.18 112.65 L472.17 113.54 L471.82 118.02 L469.95 120.77 L471.16 124.55 L475.76 124.64 L477.38 128.42 L487.59 124.93 L490.84 125.24 L492.38 127.17 L495.33 124.78 L496.98 126.06 L497.96 132.83 L497.43 135.01 L499.76 142.80 L502.08 144.66 L506.87 145.84 L513.12 145.65 L514.46 149.67 L513.89 151.57 L523.49 153.94 L525.25 156.80 L525.90 162.78 L523.18 168.59 L520.44 168.39 L516.85 172.08 L511.96 174.56 L510.83 177.93 L512.49 180.53 L510.17 183.76 L513.92 189.41 L507.89 194.80 L513.31 196.92 L516.85 196.56 L514.84 203.04 L515.28 207.40 L512.69 210.77 L516.29 213.42 L519.65 212.57 L523.38 209.26 L527.51 210.84 L531.73 214.54 L538.79 218.54 L540.69 221.08 L548.19 220.01 L550.19 221.71 L554.54 221.28 L557.83 225.04 L563.81 227.13 L562.66 229.71 L556.77 230.44 L551.46 235.71 L551.55 238.34 L555.09 243.50 L556.37 249.73 L554.84 250.61 L552.14 257.03 L552.02 260.26 L549.09 261.03 L549.14 267.76 L550.58 271.81 L548.33 273.64 L548.90 280.88 L547.35 282.80 L547.20 288.41 Z" fill="rgb(224,243,254)"><title>경기도 · 인구 13,103,188명 · 인구밀도 1,288명/km²</title></path><path class="province" d="M471.56 384.16 L475.15 385.85 L473.97 390.08 L471.78 390.85 L470.51 394.32 L474.05 397.89 L475.23 403.72 L477.94 404.18 L479.98 407.43 L485.78 407.98 L487.57 411.28 L490.57 411.42 L491.73 414.58 L491.40 419.87 L489.56 420.46 L487.19 418.92 L483.59 421.59 L483.89 424.29 L482.60 428.42 L478.28 433.15 L472.97 433.10 L471.02 434.49 L467.02 435.64 L461.74 433.08 L457.77 429.50 L458.32 426.34 L452.77 416.77 L454.56 414.88 L453.08 412.35 L456.53 407.13 L456.41 404.22 L454.57 401.55 L450.28 399.60 L450.65 394.24 L450.15 388.90 L451.72 386.45 L451.14 383.96 L448.26 384.06 L446.76 381.31 L451.55 376.38 L458.23 377.98 L465.42 383.40 L471.56 384.16 Z" fill="rgb(230,245,255)"><title>세종특별자치시 · 인구 391,984명 · 인구밀도 843명/km²</title></path><path class="province" d="M825.70 573.55 L824.27 577.27 L827.81 582.11 L828.16 585.40 L826.16 587.95 L827.08 590.35 L825.01 596.95 L823.95 603.67 L814.97 605.54 L809.33 610.46 L811.73 611.68 L811.45 617.26 L808.61 623.55 L810.80 627.34 L804.87 629.09 L801.89 632.09 L797.86 629.90 L798.45 626.04 L795.47 621.72 L787.69 623.14 L785.28 621.46 L788.04 617.58 L784.19 612.07 L781.16 613.39 L778.37 612.85 L774.94 610.33 L770.00 604.74 L769.52 601.99 L755.85 596.49 L751.17 595.76 L747.30 590.00 L751.32 588.49 L755.35 585.67 L756.32 582.71 L755.50 580.10 L752.61 579.16 L759.81 573.70 L764.19 575.53 L763.16 572.02 L763.43 568.13 L766.60 564.23 L774.19 562.45 L775.91 560.12 L778.35 561.91 L785.97 560.70 L790.36 563.97 L793.62 564.35 L795.05 566.18 L793.67 570.76 L794.68 572.93 L801.61 574.03 L810.00 568.31 L819.58 571.17 L825.70 573.55 Z" fill="rgb(226,244,254)"><title>울산광역시 · 인구 1,166,615명 · 인구밀도 1,100명/km²</title></path><path class="province" d="M505.45 466.63 L501.32 469.33 L501.49 470.87 L497.28 474.64 L491.63 471.22 L490.38 467.53 L488.05 464.32 L488.53 461.75 L485.82 460.40 L483.78 461.90 L484.50 469.93 L482.59 471.41 L480.56 475.54 L477.77 472.99 L476.40 469.67 L471.11 467.05 L470.80 461.65 L465.64 458.37 L467.24 456.04 L467.32 450.40 L470.29 446.44 L469.16 444.19 L470.80 441.73 L471.02 434.49 L472.97 433.10 L478.28 433.15 L482.60 428.42 L483.89 424.29 L483.59 421.59 L487.19 418.92 L489.56 420.46 L490.96 421.97 L490.70 427.00 L496.20 426.82 L498.98 428.02 L503.25 426.61 L507.07 428.16 L504.87 431.18 L507.05 435.65 L509.20 433.08 L513.57 433.36 L515.66 437.33 L510.67 439.49 L511.03 442.73 L506.83 449.29 L506.19 457.78 L504.37 462.77 L505.45 466.63 Z" fill="rgb(204,236,254)"><title>대전광역시 · 인구 1,475,221명 · 인구밀도 2,732명/km²</title></path><path class="province" d="M409.64 644.94 L413.51 646.31 L413.77 648.30 L420.80 658.12 L425.11 657.88 L428.23 661.63 L426.12 663.88 L426.31 669.44 L422.76 674.94 L419.37 675.78 L416.94 678.80 L413.76 678.54 L412.08 675.65 L403.84 678.56 L401.21 677.87 L395.20 682.53 L391.31 680.96 L388.56 682.41 L385.89 675.53 L382.31 672.65 L373.60 671.73 L372.18 672.82 L367.80 670.15 L368.20 662.13 L371.00 661.24 L369.14 657.16 L372.11 656.83 L373.59 652.91 L376.17 654.25 L378.65 653.47 L378.98 650.77 L381.70 646.24 L386.19 645.78 L384.82 649.41 L393.03 652.24 L398.49 650.16 L404.24 646.53 L406.77 647.12 L409.64 644.94 Z" fill="rgb(201,235,254)"><title>광주광역시 · 인구 1,490,092명 · 인구밀도 2,973명/km²</title></path><path class="province" d="M274.24 308.11 L275.74 310.58 L273.41 312.68 L271.05 310.38 L274.24 308.11 Z M277.10 293.81 L279.61 296.81 L276.58 297.46 L277.10 293.81 Z M308.23 278.27 L313.06 280.00 L310.94 281.74 L307.37 279.80 L308.23 278.27 Z M278.79 278.14 L280.66 280.88 L284.89 284.39 L287.47 285.01 L284.45 288.85 L280.41 289.76 L279.63 287.38 L276.13 286.00 L275.84 282.84 L278.79 278.14 Z M338.26 275.49 L341.26 276.29 L343.28 280.84 L340.02 282.32 L336.18 286.79 L331.76 285.16 L332.83 278.17 L338.26 275.49 Z M328.56 252.95 L333.37 257.64 L332.37 260.41 L328.81 261.17 L326.56 254.81 L328.56 252.95 Z M355.87 236.59 L356.94 238.69 L353.99 240.43 L349.95 240.83 L344.22 243.04 L342.39 246.25 L333.49 251.22 L329.86 251.11 L329.20 249.11 L325.88 246.63 L322.07 246.37 L319.40 242.80 L322.30 241.89 L331.92 236.10 L337.21 236.91 L340.23 236.05 L342.75 231.02 L347.32 231.83 L353.73 234.15 L355.87 236.59 Z M336.70 228.72 L338.73 229.99 L337.62 234.80 L331.80 232.16 L336.70 228.72 Z M311.66 225.79 L320.22 231.23 L314.87 231.84 L315.00 229.34 L311.66 225.79 Z M391.07 221.95 L386.82 226.95 L385.59 233.82 L383.12 234.25 L382.68 239.24 L386.88 241.98 L388.56 245.77 L387.03 250.05 L384.44 250.90 L381.72 255.86 L380.53 257.27 L369.37 265.36 L362.21 265.43 L361.30 259.82 L359.05 257.80 L359.05 249.86 L358.26 243.42 L360.09 237.40 L359.82 231.75 L360.37 226.96 L358.29 226.01 L354.89 220.83 L360.78 217.91 L363.92 217.35 L365.31 213.54 L368.72 211.68 L375.51 215.42 L379.87 220.04 L382.88 219.82 L391.07 221.95 Z M299.32 208.32 L302.72 208.73 L301.43 212.96 L298.08 209.70 L299.32 208.32 Z M214.70 204.01 L213.82 206.54 L209.32 208.83 L209.41 203.81 L214.70 204.01 Z M293.15 202.39 L295.77 206.40 L294.71 208.36 L290.21 205.95 L293.15 202.39 Z M314.98 191.29 L313.66 197.46 L317.88 200.55 L322.06 201.26 L322.82 206.23 L317.29 210.67 L314.38 211.06 L314.68 207.31 L313.12 203.72 L307.86 201.08 L305.37 198.88 L307.80 197.18 L308.48 192.37 L314.98 191.29 Z M304.68 179.30 L309.13 181.39 L314.81 181.32 L316.06 182.38 L313.04 186.83 L309.01 188.67 L305.63 187.64 L301.73 188.47 L298.31 190.74 L295.09 187.92 L297.55 183.83 L297.72 181.20 L299.98 179.19 L304.68 179.30 Z M347.27 193.46 L346.04 198.07 L347.48 199.82 L346.77 204.67 L348.79 206.52 L347.75 208.96 L348.01 211.58 L350.77 217.73 L346.93 219.25 L345.68 222.34 L343.09 220.39 L339.79 221.59 L338.65 219.06 L332.49 219.95 L327.26 219.68 L323.01 216.87 L322.07 212.59 L327.47 209.36 L324.49 202.16 L318.86 199.33 L317.35 196.64 L317.08 191.58 L319.25 189.73 L318.30 183.64 L322.06 181.18 L325.65 177.54 L332.65 176.49 L337.24 181.28 L344.33 185.22 L345.04 188.82 L347.27 193.46 Z M49.59 173.64 L52.00 173.71 L51.86 179.19 L50.40 180.91 L45.82 181.21 L45.11 178.14 L49.59 173.64 Z M46.14 149.12 L49.42 148.63 L53.32 149.72 L53.55 154.18 L49.80 155.94 L47.79 161.04 L38.17 159.69 L34.00 152.94 L34.56 149.96 L38.38 151.38 L46.14 149.12 Z" fill="rgb(202,235,254)"><title>인천광역시 · 인구 3,049,315명 · 인구밀도 2,913명/km²</title></path><path class="province" d="M674.58 567.83 L671.75 569.25 L671.09 575.73 L667.77 576.37 L661.49 575.85 L659.06 578.67 L650.89 581.60 L649.11 580.80 L651.51 580.63 L654.37 575.20 L650.88 572.76 L646.62 568.10 L645.88 564.09 L647.29 563.25 L656.81 565.87 L659.32 564.07 L659.21 560.00 L652.69 556.33 L651.67 553.08 L655.11 547.04 L657.21 544.70 L665.20 544.87 L666.57 541.45 L663.73 538.89 L657.62 537.07 L652.27 537.23 L651.52 534.53 L654.44 530.18 L656.85 524.33 L660.64 521.81 L666.28 521.64 L664.90 527.01 L666.23 529.07 L669.07 528.90 L674.07 524.96 L675.95 520.97 L674.67 514.39 L679.46 515.34 L684.96 513.86 L689.48 508.81 L701.48 507.31 L707.16 509.11 L708.12 512.71 L710.52 515.30 L709.26 517.96 L710.35 520.17 L709.26 523.03 L712.24 525.49 L713.32 531.13 L711.43 536.01 L704.42 541.56 L705.66 545.34 L700.10 548.27 L702.25 554.08 L701.63 558.73 L700.26 560.66 L697.10 560.90 L692.81 563.55 L690.39 564.00 L688.29 559.98 L689.34 557.86 L683.35 557.50 L677.42 561.14 L674.58 567.83 Z" fill="rgb(219,242,254)"><title>대구광역시 · 인구 2,444,412명 · 인구밀도 1,630명/km²</title></path><path class="province" d="M801.89 632.09 L795.47 633.99 L794.68 640.85 L791.85 643.97 L793.52 647.18 L790.23 653.04 L788.89 658.17 L784.60 659.61 L783.84 662.74 L774.40 664.10 L771.80 667.70 L773.00 672.02 L772.07 673.92 L767.54 674.05 L763.06 672.49 L762.76 669.72 L760.25 669.60 L758.75 672.41 L763.26 674.62 L765.15 679.10 L767.79 681.16 L765.67 682.94 L757.76 676.61 L755.71 680.75 L752.28 683.32 L749.14 683.40 L746.66 686.04 L744.03 677.89 L739.16 676.35 L737.69 677.63 L725.03 677.48 L727.56 682.67 L727.45 685.99 L725.20 689.75 L720.29 688.35 L721.30 684.78 L718.79 682.28 L722.70 681.05 L724.38 678.82 L723.06 674.10 L726.23 672.61 L724.58 668.51 L719.69 666.25 L718.36 663.34 L726.43 663.33 L730.16 661.71 L732.70 658.96 L730.86 655.36 L733.11 653.18 L739.55 652.75 L751.67 649.41 L754.13 642.34 L760.21 641.11 L761.88 638.29 L764.11 639.26 L766.62 636.91 L770.33 635.87 L772.89 629.26 L776.34 625.78 L780.62 628.09 L783.72 626.37 L785.28 621.46 L787.69 623.14 L795.47 621.72 L798.45 626.04 L797.86 629.90 L801.89 632.09 Z" fill="rgb(176,223,253)"><title>부산광역시 · 인구 3,453,198명 · 인구밀도 4,486명/km²</title></path><path class="province" d="M386.82 226.95 L391.07 221.95 L393.00 217.93 L395.44 220.27 L400.43 223.04 L404.51 222.32 L408.77 219.50 L408.62 216.28 L410.50 210.54 L416.20 207.87 L420.77 212.89 L422.36 211.82 L421.49 208.61 L423.67 204.47 L426.12 203.18 L427.43 200.20 L433.03 202.60 L438.20 201.05 L440.36 202.37 L439.93 209.51 L442.50 210.48 L444.13 217.77 L441.42 221.55 L441.37 225.88 L453.29 222.32 L454.60 225.72 L454.12 228.32 L451.53 228.62 L447.73 235.25 L451.23 236.77 L448.79 241.07 L444.04 243.70 L440.89 244.32 L435.57 249.74 L433.36 249.83 L430.62 247.53 L430.83 244.71 L426.63 244.94 L425.38 242.78 L418.79 247.55 L414.91 248.48 L412.72 246.20 L408.92 248.81 L403.19 237.95 L398.56 241.24 L395.72 241.23 L394.46 238.04 L396.76 231.95 L395.72 229.41 L387.38 227.94 L386.82 226.95 Z" fill="rgb(30,64,175)"><title>서울특별시 · 인구 9,668,465명 · 인구밀도 15,974명/km²</title></path></g>
<g><circle class="gbif-point" cx="307.1" cy="361.1" r="4.2"><title>Anas acuta Linnaeus, 1758 · </title></circle><circle class="gbif-point" cx="491.6" cy="437.6" r="4.2"><title>Suthora webbiana Gould, 1852 · </title></circle><circle class="gbif-point" cx="306.5" cy="357.9" r="4.2"><title>Emberiza rustica Pallas, 1776 · </title></circle><circle class="gbif-point" cx="436.7" cy="268.1" r="4.2"><title>Sittiparus varius (Temminck &amp; Schlegel, 1847) · </title></circle><circle class="gbif-point" cx="440.8" cy="234.7" r="4.2"><title>Columba livia var. domestica J.F.Gmelin, 1789 · </title></circle><circle class="gbif-point" cx="421.8" cy="223.8" r="4.2"><title>Ardea cinerea Linnaeus, 1758 · </title></circle><circle class="gbif-point" cx="498.0" cy="384.9" r="4.2"><title>Buteo japonicus Temminck &amp; Schlegel, 1844 · </title></circle><circle class="gbif-point" cx="305.2" cy="348.0" r="4.2"><title>Passer montanus (Linnaeus, 1758) · </title></circle><circle class="gbif-point" cx="447.8" cy="365.5" r="4.2"><title>Tachybaptus ruficollis (Pallas, 1764) · </title></circle><circle class="gbif-point" cx="558.6" cy="679.1" r="4.2"><title>Antigone vipio (Pallas, 1811) · </title></circle><circle class="gbif-point" cx="427.9" cy="206.8" r="4.2"><title>Ligustrum obtusifolium Siebold &amp; Zucc. · </title></circle><circle class="gbif-point" cx="497.4" cy="383.9" r="4.2"><title>Buteo hemilasius Temminck &amp; Schlegel, 1844 · </title></circle><circle class="gbif-point" cx="374.1" cy="538.2" r="4.2"><title>Bucephala clangula (Linnaeus, 1758) · </title></circle><circle class="gbif-point" cx="687.7" cy="687.2" r="4.2"><title>Charybdis japonica (A.Milne-Edwards, 1861) · </title></circle><circle class="gbif-point" cx="440.8" cy="234.6" r="4.2"><title>Phalacrocorax carbo (Linnaeus, 1758) · </title></circle><circle class="gbif-point" cx="417.2" cy="242.5" r="4.2"><title>Periparus ater (Linnaeus, 1758) · </title></circle><circle class="gbif-point" cx="294.5" cy="350.4" r="4.2"><title>Mareca falcata (Georgi, 1775) · </title></circle><circle class="gbif-point" cx="307.3" cy="368.2" r="4.2"><title>Ardea cinerea Linnaeus, 1758 · </title></circle><circle class="gbif-point" cx="307.4" cy="360.9" r="4.2"><title>Anas crecca Linnaeus, 1758 · </title></circle><circle class="gbif-point" cx="308.0" cy="363.9" r="4.2"><title>Anas zonorhyncha Swinhoe, 1866 · </title></circle><circle class="gbif-point" cx="491.8" cy="438.1" r="4.2"><title>Anas acuta Linnaeus, 1758 · </title></circle><circle class="gbif-point" cx="436.3" cy="273.1" r="4.2"><title>Erigeron annuus (L.) Pers. · </title></circle><circle class="gbif-point" cx="304.6" cy="345.4" r="4.2"><title>Anarhynchus alexandrinus · </title></circle><circle class="gbif-point" cx="491.7" cy="437.3" r="4.2"><title>Phalacrocorax carbo (Linnaeus, 1758) · </title></circle><circle class="gbif-point" cx="440.9" cy="234.7" r="4.2"><title>Passer montanus (Linnaeus, 1758) · </title></circle><circle class="gbif-point" cx="440.4" cy="234.1" r="4.2"><title>Columba livia var. domestica J.F.Gmelin, 1789 · </title></circle><circle class="gbif-point" cx="687.7" cy="687.2" r="4.2"><title>Pholis nebulosa (Temminck &amp; Schlegel, 1845) · </title></circle><circle class="gbif-point" cx="305.2" cy="348.0" r="4.2"><title>Emberiza elegans Temminck, 1836 · </title></circle><circle class="gbif-point" cx="300.4" cy="350.3" r="4.2"><title>Ardea alba Linnaeus, 1758 · </title></circle><circle class="gbif-point" cx="611.4" cy="244.4" r="4.2"><title>Juniperus rigida Siebold &amp; Zucc. · </title></circle><circle class="gbif-point" cx="305.4" cy="346.5" r="4.2"><title>Emberiza pallasi (Cabanis, 1851) · </title></circle><circle class="gbif-point" cx="422.4" cy="224.0" r="4.2"><title>Hypsipetes amaurotis (Temminck, 1830) · </title></circle><circle class="gbif-point" cx="611.1" cy="244.1" r="4.2"><title>Rhodinia fugax Butler, 1877 · </title></circle><circle class="gbif-point" cx="300.6" cy="347.8" r="4.2"><title>Astur Lacepède, 1799 · </title></circle><circle class="gbif-point" cx="491.5" cy="437.7" r="4.2"><title>Upupa epops Linnaeus, 1758 · </title></circle><circle class="gbif-point" cx="435.7" cy="273.1" r="4.2"><title>Artemisia indica Willd. · </title></circle><circle class="gbif-point" cx="488.6" cy="442.0" r="4.2"><title>Chloris sinica (Linnaeus, 1766) · </title></circle><circle class="gbif-point" cx="304.9" cy="345.5" r="4.2"><title>Cygnus cygnus (Linnaeus, 1758) · </title></circle><circle class="gbif-point" cx="417.1" cy="232.2" r="4.2"><title>Felis catus Linnaeus, 1758 · </title></circle><circle class="gbif-point" cx="447.6" cy="365.6" r="4.2"><title>Ardea cinerea Linnaeus, 1758 · </title></circle><circle class="gbif-point" cx="303.6" cy="346.8" r="4.2"><title>Cygnus cygnus (Linnaeus, 1758) · </title></circle><circle class="gbif-point" cx="320.4" cy="352.1" r="4.2"><title>Emberiza rustica Pallas, 1776 · </title></circle><circle class="gbif-point" cx="313.1" cy="362.2" r="4.2"><title>Cygnus cygnus (Linnaeus, 1758) · </title></circle><circle class="gbif-point" cx="394.9" cy="220.5" r="4.2"><title>Larus Linnaeus, 1758 · </title></circle><circle class="gbif-point" cx="304.0" cy="345.1" r="4.2"><title>Monticola solitarius (Linnaeus, 1758) · </title></circle><circle class="gbif-point" cx="447.8" cy="365.5" r="4.2"><title>Fulica atra Linnaeus, 1758 · </title></circle><circle class="gbif-point" cx="371.9" cy="511.6" r="4.2"><title>Aegypius monachus (Linnaeus, 1766) · </title></circle><circle class="gbif-point" cx="430.9" cy="241.9" r="4.2"><title>Columba livia var. domestica J.F.Gmelin, 1789 · </title></circle><circle class="gbif-point" cx="384.6" cy="525.1" r="4.2"><title>Aegypius monachus (Linnaeus, 1766) · </title></circle><circle class="gbif-point" cx="520.2" cy="364.4" r="4.2"><title>Hydropotes inermis Swinhoe, 1870 · </title></circle><circle class="gbif-point" cx="430.7" cy="383.4" r="4.2"><title>Antheraea yamamai Guérin-Méneville, 1861 · </title></circle><circle class="gbif-point" cx="307.1" cy="361.2" r="4.2"><title>Mareca strepera (Linnaeus, 1758) · </title></circle><circle class="gbif-point" cx="427.5" cy="206.9" r="4.2"><title>Juniperus rigida Siebold &amp; Zucc. · </title></circle><circle class="gbif-point" cx="585.0" cy="685.7" r="4.2"><title>Grus virgo (Linnaeus, 1758) · </title></circle><circle class="gbif-point" cx="416.6" cy="242.8" r="4.2"><title>Periparus ater (Linnaeus, 1758) · </title></circle><circle class="gbif-point" cx="482.4" cy="451.6" r="4.2"><title>Emberiza elegans Temminck, 1836 · </title></circle><circle class="gbif-point" cx="487.7" cy="442.2" r="4.2"><title>Anthus hodgsoni Richmond, 1907 · </title></circle><circle class="gbif-point" cx="303.7" cy="346.8" r="4.2"><title>Buteo japonicus Temminck &amp; Schlegel, 1844 · </title></circle><circle class="gbif-point" cx="317.2" cy="328.9" r="4.2"><title>Aegypius monachus (Linnaeus, 1766) · </title></circle><circle class="gbif-point" cx="316.8" cy="362.1" r="4.2"><title>Cygnus cygnus (Linnaeus, 1758) · </title></circle><circle class="gbif-point" cx="307.4" cy="360.9" r="4.2"><title>Mareca strepera (Linnaeus, 1758) · </title></circle><circle class="gbif-point" cx="372.1" cy="539.0" r="4.2"><title>Buteo japonicus Temminck &amp; Schlegel, 1844 · </title></circle><circle class="gbif-point" cx="487.7" cy="442.2" r="4.2"><title>Eophona migratoria Hartert, 1903 · </title></circle><circle class="gbif-point" cx="373.7" cy="539.0" r="4.2"><title>Anas acuta Linnaeus, 1758 · </title></circle><circle class="gbif-point" cx="491.6" cy="437.1" r="4.2"><title>Motacilla cinerea Tunstall, 1771 · </title></circle><circle class="gbif-point" cx="491.6" cy="437.6" r="4.2"><title>Motacilla alba Linnaeus, 1758 · </title></circle><circle class="gbif-point" cx="416.3" cy="243.7" r="4.2"><title>Pica serica Gould, 1845 · </title></circle><circle class="gbif-point" cx="436.3" cy="273.0" r="4.2"><title>Anas zonorhyncha Swinhoe, 1866 · </title></circle><circle class="gbif-point" cx="413.9" cy="232.4" r="4.2"><title>Pica serica Gould, 1845 · </title></circle><circle class="gbif-point" cx="487.9" cy="441.4" r="4.2"><title>Thinornis G.R.Gray, 1844 · </title></circle><circle class="gbif-point" cx="440.8" cy="234.7" r="4.2"><title>Anas platyrhynchos Linnaeus, 1758 · </title></circle><circle class="gbif-point" cx="300.4" cy="350.3" r="4.2"><title>Platalea leucorodia Linnaeus, 1758 · </title></circle><circle class="gbif-point" cx="307.1" cy="360.7" r="4.2"><title>Cygnus cygnus (Linnaeus, 1758) · </title></circle><circle class="gbif-point" cx="304.0" cy="345.1" r="4.2"><title>Turdus eunomus Temminck, 1831 · </title></circle><circle class="gbif-point" cx="491.7" cy="437.3" r="4.2"><title>Aix galericulata (Linnaeus, 1758) · </title></circle><circle class="gbif-point" cx="371.3" cy="538.8" r="4.2"><title>Buteo hemilasius Temminck &amp; Schlegel, 1844 · </title></circle><circle class="gbif-point" cx="347.1" cy="966.9" r="4.2"><title>Miscanthus sinensis Andersson · </title></circle><circle class="gbif-point" cx="302.3" cy="344.3" r="4.2"><title>Anas platyrhynchos Linnaeus, 1758 · </title></circle><circle class="gbif-point" cx="303.5" cy="346.8" r="4.2"><title>Ardea alba Linnaeus, 1758 · </title></circle><circle class="gbif-point" cx="302.0" cy="348.0" r="4.2"><title>Anser serrirostris Gould, 1852 · </title></circle><circle class="gbif-point" cx="416.2" cy="243.7" r="4.2"><title>Sittiparus varius (Temminck &amp; Schlegel, 1847) · </title></circle><circle class="gbif-point" cx="310.2" cy="352.9" r="4.2"><title>Aegypius monachus (Linnaeus, 1766) · </title></circle><circle class="gbif-point" cx="374.8" cy="538.4" r="4.2"><title>Mareca strepera (Linnaeus, 1758) · </title></circle><circle class="gbif-point" cx="316.0" cy="360.9" r="4.2"><title>Bucephala clangula (Linnaeus, 1758) · </title></circle><circle class="gbif-point" cx="300.5" cy="351.8" r="4.2"><title>Haliaeetus albicilla (Linnaeus, 1758) · </title></circle><circle class="gbif-point" cx="430.7" cy="241.3" r="4.2"><title>Pica serica Gould, 1845 · </title></circle><circle class="gbif-point" cx="487.7" cy="441.4" r="4.2"><title>Thinornis G.R.Gray, 1844 · </title></circle><circle class="gbif-point" cx="413.0" cy="239.5" r="4.2"><title>Columba livia var. domestica J.F.Gmelin, 1789 · </title></circle><circle class="gbif-point" cx="301.1" cy="347.3" r="4.2"><title>Buteo japonicus Temminck &amp; Schlegel, 1844 · </title></circle><circle class="gbif-point" cx="437.3" cy="267.7" r="4.2"><title>Pica serica Gould, 1845 · </title></circle><circle class="gbif-point" cx="376.3" cy="531.1" r="4.2"><title>Aegypius monachus (Linnaeus, 1766) · </title></circle><circle class="gbif-point" cx="313.4" cy="362.8" r="4.2"><title>Pycnonotus sinensis (Gmelin, 1789) · </title></circle><circle class="gbif-point" cx="491.6" cy="440.0" r="4.2"><title>Spatula clypeata (Linnaeus, 1758) · </title></circle><circle class="gbif-point" cx="301.9" cy="343.4" r="4.2"><title>Mergus serrator Linnaeus, 1758 · </title></circle><circle class="gbif-point" cx="316.6" cy="361.8" r="4.2"><title>Anas platyrhynchos Linnaeus, 1758 · </title></circle><circle class="gbif-point" cx="300.2" cy="352.9" r="4.2"><title>Cygnus cygnus (Linnaeus, 1758) · </title></circle><circle class="gbif-point" cx="307.0" cy="362.2" r="4.2"><title>Grus monacha Temminck, 1835 · </title></circle><circle class="gbif-point" cx="611.8" cy="243.5" r="4.2"><title>Buteo japonicus Temminck &amp; Schlegel, 1844 · </title></circle><circle class="gbif-point" cx="430.1" cy="385.2" r="4.2"><title>Samia cynthia Drury, 1773 · </title></circle><circle class="gbif-point" cx="305.2" cy="348.0" r="4.2"><title>Passer montanus (Linnaeus, 1758) · </title></circle><circle class="gbif-point" cx="428.9" cy="205.8" r="4.2"><title>Anisolabella marginalis (Dohrn, 1864) · </title></circle><circle class="gbif-point" cx="428.7" cy="205.6" r="4.2"><title>Hypsipetes amaurotis hensoni · </title></circle><circle class="gbif-point" cx="584.3" cy="685.7" r="4.2"><title>Thinornis G.R.Gray, 1844 · </title></circle><circle class="gbif-point" cx="498.0" cy="383.8" r="4.2"><title>Haliaeetus albicilla albicilla (Linnaeus, 1758) · </title></circle><circle class="gbif-point" cx="462.3" cy="208.7" r="4.2"><title>Motacilla cinerea Tunstall, 1771 · </title></circle><circle class="gbif-point" cx="585.0" cy="685.7" r="4.2"><title>Larus canus Linnaeus, 1758 · </title></circle><circle class="gbif-point" cx="416.8" cy="240.0" r="4.2"><title>Columba livia var. domestica J.F.Gmelin, 1789 · </title></circle><circle class="gbif-point" cx="491.6" cy="437.6" r="4.2"><title>Ardea alba alba Linnaeus, 1758 · </title></circle><circle class="gbif-point" cx="491.8" cy="437.6" r="4.2"><title>Aix galericulata (Linnaeus, 1758) · </title></circle><circle class="gbif-point" cx="327.1" cy="374.6" r="4.2"><title>Aegypius monachus (Linnaeus, 1766) · </title></circle><circle class="gbif-point" cx="685.2" cy="648.4" r="4.2"><title>Cambaroides similis (Koelbel, 1892) · </title></circle><circle class="gbif-point" cx="316.6" cy="361.8" r="4.2"><title>Anas platyrhynchos Linnaeus, 1758 · </title></circle><circle class="gbif-point" cx="361.4" cy="556.8" r="4.2"><title>Lanius bucephalus Temminck &amp; Schlegel, 1845 · </title></circle><circle class="gbif-point" cx="487.7" cy="442.2" r="4.2"><title>Fringilla montifringilla Linnaeus, 1758 · </title></circle><circle class="gbif-point" cx="404.5" cy="220.3" r="4.2"><title>Hydropotes inermis argyropus Heude, 1884 · </title></circle><circle class="gbif-point" cx="299.3" cy="352.4" r="4.2"><title>Haliaeetus albicilla albicilla (Linnaeus, 1758) · </title></circle><circle class="gbif-point" cx="369.0" cy="537.3" r="4.2"><title>Aegypius monachus (Linnaeus, 1766) · </title></circle><circle class="gbif-point" cx="317.7" cy="362.9" r="4.2"><title>Motacilla alba lugens Gloger, 1829 · </title></circle><circle class="gbif-point" cx="461.9" cy="208.8" r="4.2"><title>Thinornis G.R.Gray, 1844 · </title></circle><circle class="gbif-point" cx="307.1" cy="360.7" r="4.2"><title>Bucephala clangula (Linnaeus, 1758) · </title></circle><circle class="gbif-point" cx="468.5" cy="461.6" r="4.2"><title>Mareca falcata (Georgi, 1775) · </title></circle><circle class="gbif-point" cx="428.8" cy="205.6" r="4.2"><title>Corvus macrorhynchos mandshuricus Buturlin, 1913 · </title></circle><circle class="gbif-point" cx="440.9" cy="234.7" r="4.2"><title>Passer montanus (Linnaeus, 1758) · </title></circle><circle class="gbif-point" cx="462.3" cy="208.7" r="4.2"><title>Motacilla grandis Sharpe, 1885 · </title></circle><circle class="gbif-point" cx="491.8" cy="437.6" r="4.2"><title>Fulica atra Linnaeus, 1758 · </title></circle><circle class="gbif-point" cx="428.8" cy="205.6" r="4.2"><title>Troglodytes troglodytes dauricus Dybowski &amp; Taczanowski, 1884 · </title></circle><circle class="gbif-point" cx="308.0" cy="364.0" r="4.2"><title>Cygnus cygnus (Linnaeus, 1758) · </title></circle><circle class="gbif-point" cx="602.5" cy="656.9" r="4.2"><title>Fulica atra Linnaeus, 1758 · </title></circle><circle class="gbif-point" cx="487.4" cy="442.3" r="4.2"><title>Gallinula chloropus (Linnaeus, 1758) · </title></circle><circle class="gbif-point" cx="487.7" cy="442.2" r="4.2"><title>Poecile palustris (Linnaeus, 1758) · </title></circle><circle class="gbif-point" cx="305.3" cy="361.9" r="4.2"><title>Gallinago gallinago (Linnaeus, 1758) · </title></circle><circle class="gbif-point" cx="462.7" cy="208.8" r="4.2"><title>Passer montanus (Linnaeus, 1758) · </title></circle><circle class="gbif-point" cx="653.5" cy="325.2" r="4.2"><title>Coreoperca herzi Herzenstein, 1896 · </title></circle><circle class="gbif-point" cx="611.9" cy="243.8" r="4.2"><title>Emberiza elegans Temminck, 1836 · </title></circle><circle class="gbif-point" cx="300.5" cy="350.6" r="4.2"><title>Haliaeetus albicilla (Linnaeus, 1758) · </title></circle><circle class="gbif-point" cx="440.8" cy="234.7" r="4.2"><title>Passer montanus (Linnaeus, 1758) · </title></circle><circle class="gbif-point" cx="463.4" cy="208.6" r="4.2"><title>Accipiter nisus nisosimilis (Tickell, 1833) · </title></circle><circle class="gbif-point" cx="301.3" cy="349.9" r="4.2"><title>Cygnus cygnus (Linnaeus, 1758) · </title></circle><circle class="gbif-point" cx="428.1" cy="207.1" r="4.2"><title>Sittiparus varius varius · </title></circle><circle class="gbif-point" cx="667.8" cy="547.6" r="4.2"><title>Glandirana emeljanovi (Nikolskii, 1913) · </title></circle><circle class="gbif-point" cx="429.1" cy="205.5" r="4.2"><title>Passer montanus saturatus Stejneger, 1885 · </title></circle><circle class="gbif-point" cx="372.2" cy="538.9" r="4.2"><title>Buteo japonicus Temminck &amp; Schlegel, 1844 · </title></circle><circle class="gbif-point" cx="305.2" cy="362.0" r="4.2"><title>Tringa ochropus Linnaeus, 1758 · </title></circle><circle class="gbif-point" cx="487.5" cy="442.1" r="4.2"><title>Streptopelia orientalis (Latham, 1790) · </title></circle><circle class="gbif-point" cx="498.9" cy="383.4" r="4.2"><title>Falco tinnunculus Linnaeus, 1758 · </title></circle><circle class="gbif-point" cx="440.8" cy="234.6" r="4.2"><title>Columba livia var. domestica J.F.Gmelin, 1789 · </title></circle><circle class="gbif-point" cx="491.6" cy="437.1" r="4.2"><title>Motacilla grandis Sharpe, 1885 · </title></circle><circle class="gbif-point" cx="436.7" cy="268.1" r="4.2"><title>Sittiparus varius (Temminck &amp; Schlegel, 1847) · </title></circle><circle class="gbif-point" cx="487.5" cy="442.1" r="4.2"><title>Turdus eunomus Temminck, 1831 · </title></circle><circle class="gbif-point" cx="440.8" cy="234.7" r="4.2"><title>Passer montanus (Linnaeus, 1758) · </title></circle><circle class="gbif-point" cx="316.0" cy="360.9" r="4.2"><title>Bucephala clangula (Linnaeus, 1758) · </title></circle><circle class="gbif-point" cx="440.8" cy="234.6" r="4.2"><title>Anas platyrhynchos Linnaeus, 1758 · </title></circle><circle class="gbif-point" cx="489.3" cy="441.4" r="4.2"><title>Motacilla grandis Sharpe, 1885 · </title></circle><circle class="gbif-point" cx="367.9" cy="964.9" r="4.2"><title>Alsophila japonensis (Warren, 1894) · </title></circle><circle class="gbif-point" cx="656.2" cy="619.3" r="4.2"><title>Hynobius perplicatus Min &amp; Borzée, 2021 · </title></circle><circle class="gbif-point" cx="462.3" cy="208.7" r="4.2"><title>Motacilla alba ocularis Swinhoe, 1860 · </title></circle><circle class="gbif-point" cx="420.7" cy="223.2" r="4.2"><title>Pica serica Gould, 1845 · </title></circle><circle class="gbif-point" cx="436.3" cy="273.1" r="4.2"><title>Cenchrus alopecuroides (L.) Thunb. · </title></circle><circle class="gbif-point" cx="300.3" cy="352.0" r="4.2"><title>Cygnus cygnus (Linnaeus, 1758) · </title></circle><circle class="gbif-point" cx="685.3" cy="648.4" r="4.2"><title>Cambaroides similis (Koelbel, 1892) · </title></circle><circle class="gbif-point" cx="492.4" cy="435.4" r="4.2"><title>Mergus merganser Linnaeus, 1758 · </title></circle><circle class="gbif-point" cx="491.8" cy="438.1" r="4.2"><title>Aix galericulata (Linnaeus, 1758) · </title></circle><circle class="gbif-point" cx="487.6" cy="441.4" r="4.2"><title>Upupa epops Linnaeus, 1758 · </title></circle><circle class="gbif-point" cx="301.3" cy="343.8" r="4.2"><title>Phalacrocorax capillatus (Temminck &amp; Schlegel, 1849) · </title></circle><circle class="gbif-point" cx="417.9" cy="232.5" r="4.2"><title>Phalacrocorax carbo (Linnaeus, 1758) · </title></circle><circle class="gbif-point" cx="370.0" cy="538.4" r="4.2"><title>Buteo japonicus Temminck &amp; Schlegel, 1844 · </title></circle><circle class="gbif-point" cx="448.4" cy="361.9" r="4.2"><title>Pica serica Gould, 1845 · </title></circle><circle class="gbif-point" cx="299.8" cy="338.9" r="4.2"><title>Grus monacha Temminck, 1835 · </title></circle><circle class="gbif-point" cx="492.8" cy="433.8" r="4.2"><title>Falco tinnunculus Linnaeus, 1758 · </title></circle><circle class="gbif-point" cx="447.6" cy="365.6" r="4.2"><title>Motacilla alba Linnaeus, 1758 · </title></circle><circle class="gbif-point" cx="391.6" cy="504.1" r="4.2"><title>Sibirionetta formosa (Georgi, 1775) · </title></circle><circle class="gbif-point" cx="430.8" cy="241.0" r="4.2"><title>Tachybaptus ruficollis (Pallas, 1764) · </title></circle><circle class="gbif-point" cx="300.5" cy="349.1" r="4.2"><title>Buteo japonicus Temminck &amp; Schlegel, 1844 · </title></circle><circle class="gbif-point" cx="305.8" cy="346.3" r="4.2"><title>Circus cyaneus (Linnaeus, 1766) · </title></circle><circle class="gbif-point" cx="491.8" cy="439.2" r="4.2"><title>Mergellus albellus (Linnaeus, 1758) · </title></circle><circle class="gbif-point" cx="487.6" cy="442.1" r="4.2"><title>Hypsipetes amaurotis (Temminck, 1830) · </title></circle><circle class="gbif-point" cx="314.6" cy="336.9" r="4.2"><title>Mareca falcata (Georgi, 1775) · </title></circle><circle class="gbif-point" cx="428.7" cy="206.5" r="4.2"><title>Nandina domestica Thunb. · </title></circle><circle class="gbif-point" cx="404.8" cy="208.1" r="4.2"><title>Monema flavescens Walker, 1855 · </title></circle><circle class="gbif-point" cx="491.7" cy="440.1" r="4.2"><title>Buteo japonicus Temminck &amp; Schlegel, 1844 · </title></circle><circle class="gbif-point" cx="373.9" cy="538.6" r="4.2"><title>Aythya fuligula (Linnaeus, 1758) · </title></circle><circle class="gbif-point" cx="430.8" cy="240.9" r="4.2"><title>Anas platyrhynchos Linnaeus, 1758 · </title></circle><circle class="gbif-point" cx="440.9" cy="234.7" r="4.2"><title>Columba livia var. domestica J.F.Gmelin, 1789 · </title></circle><circle class="gbif-point" cx="490.8" cy="440.8" r="4.2"><title>Upupa epops Linnaeus, 1758 · </title></circle><circle class="gbif-point" cx="493.3" cy="379.3" r="4.2"><title>Aegypius monachus (Linnaeus, 1766) · </title></circle><circle class="gbif-point" cx="374.1" cy="538.2" r="4.2"><title>Tringa erythropus (Pallas, 1764) · </title></circle><circle class="gbif-point" cx="412.1" cy="225.4" r="4.2"><title>Streptopelia orientalis (Latham, 1790) · </title></circle><circle class="gbif-point" cx="307.6" cy="364.3" r="4.2"><title>Hypsipetes amaurotis (Temminck, 1830) · </title></circle><circle class="gbif-point" cx="313.1" cy="362.2" r="4.2"><title>Bucephala clangula (Linnaeus, 1758) · </title></circle><circle class="gbif-point" cx="491.7" cy="437.1" r="4.2"><title>Motacilla cinerea Tunstall, 1771 · </title></circle><circle class="gbif-point" cx="462.4" cy="208.7" r="4.2"><title>Motacilla alba lugens Gloger, 1829 · </title></circle><circle class="gbif-point" cx="488.5" cy="442.2" r="4.2"><title>Parus cinereus Vieillot, 1818 · </title></circle><circle class="gbif-point" cx="416.2" cy="243.5" r="4.2"><title>Eophona migratoria Hartert, 1903 · </title></circle><circle class="gbif-point" cx="487.7" cy="442.2" r="4.2"><title>Eophona migratoria Hartert, 1903 · </title></circle><circle class="gbif-point" cx="370.1" cy="538.0" r="4.2"><title>Aquila chrysaetos kamtschatica Severtzov, 1888 · </title></circle><circle class="gbif-point" cx="488.2" cy="441.3" r="4.2"><title>Falco tinnunculus Linnaeus, 1758 · </title></circle><circle class="gbif-point" cx="307.3" cy="368.2" r="4.2"><title>Emberiza elegans Temminck, 1836 · </title></circle><circle class="gbif-point" cx="422.0" cy="227.7" r="4.2"><title>Nandina domestica Thunb. · </title></circle><circle class="gbif-point" cx="413.3" cy="232.0" r="4.2"><title>Pica serica Gould, 1845 · </title></circle><circle class="gbif-point" cx="440.8" cy="234.7" r="4.2"><title>Columba livia var. domestica J.F.Gmelin, 1789 · </title></circle><circle class="gbif-point" cx="749.0" cy="661.9" r="4.2"><title>Columba livia var. domestica J.F.Gmelin, 1789 · </title></circle><circle class="gbif-point" cx="487.5" cy="442.1" r="4.2"><title>Turdus naumanni Temminck, 1820 · </title></circle><circle class="gbif-point" cx="491.7" cy="439.9" r="4.2"><title>Aix galericulata (Linnaeus, 1758) · </title></circle><circle class="gbif-point" cx="437.3" cy="267.7" r="4.2"><title>Pica serica Gould, 1845 · </title></circle><circle class="gbif-point" cx="429.4" cy="202.7" r="4.2"><title>Acer pseudosieboldianum (Pax) Kom. · </title></circle><circle class="gbif-point" cx="429.9" cy="204.6" r="4.2"><title>Lymantria dispar Linnaeus, 1758 · </title></circle><circle class="gbif-point" cx="469.7" cy="149.6" r="4.2"><title>Cyanopica cyanus (Pallas, 1776) · </title></circle><circle class="gbif-point" cx="470.0" cy="149.6" r="4.2"><title>Buteo japonicus Temminck &amp; Schlegel, 1844 · </title></circle><circle class="gbif-point" cx="611.9" cy="243.8" r="4.2"><title>Phoenicurus auroreus (Pallas, 1776) · </title></circle><circle class="gbif-point" cx="498.2" cy="384.3" r="4.2"><title>Anthus hodgsoni Richmond, 1907 · </title></circle><circle class="gbif-point" cx="436.7" cy="274.6" r="4.2"><title>Pica serica Gould, 1845 · </title></circle><circle class="gbif-point" cx="433.1" cy="275.0" r="4.2"><title>Poecile palustris (Linnaeus, 1758) · </title></circle><circle class="gbif-point" cx="437.2" cy="268.4" r="4.2"><title>Ardea alba alba Linnaeus, 1758 · </title></circle><circle class="gbif-point" cx="444.2" cy="93.5" r="4.2"><title>Antigone vipio (Pallas, 1811) · </title></circle><circle class="gbif-point" cx="577.8" cy="566.7" r="4.2"><title>Fulica atra Linnaeus, 1758 · </title></circle><circle class="gbif-point" cx="317.4" cy="979.3" r="4.2"><title>Phasianus colchicus Linnaeus, 1758 · </title></circle><circle class="gbif-point" cx="469.7" cy="149.5" r="4.2"><title>Passer montanus (Linnaeus, 1758) · </title></circle><circle class="gbif-point" cx="469.7" cy="149.6" r="4.2"><title>Pica serica Gould, 1845 · </title></circle><circle class="gbif-point" cx="457.0" cy="163.0" r="4.2"><title>Artemisia indica Willd. · </title></circle><circle class="gbif-point" cx="313.2" cy="393.3" r="4.2"><title>Aegypius monachus (Linnaeus, 1766) · </title></circle><circle class="gbif-point" cx="436.7" cy="273.1" r="4.2"><title>Erigeron annuus (L.) Pers. · </title></circle><circle class="gbif-point" cx="483.2" cy="443.3" r="4.2"><title>Ardea alba Linnaeus, 1758 · </title></circle><circle class="gbif-point" cx="611.9" cy="243.8" r="4.2"><title>Dendrocopos major (Linnaeus, 1758) · </title></circle><circle class="gbif-point" cx="382.7" cy="253.5" r="4.2"><title>Corvus macrorhynchos Wagler, 1827 · </title></circle><circle class="gbif-point" cx="442.4" cy="176.2" r="4.2"><title>Felis catus Linnaeus, 1758 · </title></circle><circle class="gbif-point" cx="469.8" cy="149.5" r="4.2"><title>Eophona migratoria Hartert, 1903 · </title></circle><circle class="gbif-point" cx="469.8" cy="149.5" r="4.2"><title>Suthora webbiana Gould, 1852 · </title></circle><circle class="gbif-point" cx="705.6" cy="667.7" r="4.2"><title>Hypsipetes amaurotis (Temminck, 1830) · </title></circle><circle class="gbif-point" cx="469.3" cy="149.7" r="4.2"><title>Pica serica Gould, 1845 · </title></circle><circle class="gbif-point" cx="478.4" cy="181.4" r="4.2"><title>Felis catus Linnaeus, 1758 · </title></circle><circle class="gbif-point" cx="489.7" cy="151.2" r="4.2"><title>Felis catus Linnaeus, 1758 · </title></circle><circle class="gbif-point" cx="680.6" cy="403.3" r="4.2"><title>Falco tinnunculus Linnaeus, 1758 · </title></circle><circle class="gbif-point" cx="510.8" cy="184.2" r="4.2"><title>Sciurus vulgaris Linnaeus, 1758 · </title></circle><circle class="gbif-point" cx="542.1" cy="592.3" r="4.2"><title>Phoenicurus auroreus (Pallas, 1776) · </title></circle><circle class="gbif-point" cx="469.6" cy="149.5" r="4.2"><title>Corvus macrorhynchos Wagler, 1827 · </title></circle><circle class="gbif-point" cx="302.8" cy="393.4" r="4.2"><title>Aegypius monachus (Linnaeus, 1766) · </title></circle><circle class="gbif-point" cx="469.7" cy="149.4" r="4.2"><title>Aegithalos caudatus (Linnaeus, 1758) · </title></circle><circle class="gbif-point" cx="482.4" cy="444.6" r="4.2"><title>Streptopelia orientalis (Latham, 1790) · </title></circle><circle class="gbif-point" cx="446.9" cy="294.8" r="4.2"><title>Ancylopus pictus · </title></circle><circle class="gbif-point" cx="308.7" cy="295.7" r="4.2"><title>Portunus trituberculatus (Miers, 1876) · </title></circle><circle class="gbif-point" cx="438.6" cy="205.4" r="4.2"><title>Acer palmatum Thunb. · </title></circle><circle class="gbif-point" cx="458.1" cy="163.8" r="4.2"><title>Anas zonorhyncha Swinhoe, 1866 · </title></circle><circle class="gbif-point" cx="365.1" cy="255.7" r="4.2"><title>Chloris sinica ussuriensis Hartert, 1903 · </title></circle><circle class="gbif-point" cx="477.0" cy="164.7" r="4.2"><title>Felis catus Linnaeus, 1758 · </title></circle><circle class="gbif-point" cx="469.6" cy="149.5" r="4.2"><title>Pica serica Gould, 1845 · </title></circle><circle class="gbif-point" cx="469.7" cy="149.4" r="4.2"><title>Passer montanus (Linnaeus, 1758) · </title></circle><circle class="gbif-point" cx="498.0" cy="387.3" r="4.2"><title>Tenodera sinensis Saussure, 1871 · </title></circle><circle class="gbif-point" cx="452.1" cy="189.2" r="4.2"><title>Suthora webbiana Gould, 1852 · </title></circle><circle class="gbif-point" cx="451.8" cy="189.7" r="4.2"><title>Yungipicus kizuki (Temminck, 1836) · </title></circle><circle class="gbif-point" cx="572.3" cy="567.1" r="4.2"><title>Anas zonorhyncha Swinhoe, 1866 · </title></circle><circle class="gbif-point" cx="438.0" cy="203.7" r="4.2"><title>Poecile palustris hellmayri Bianchi, 1902 · </title></circle><circle class="gbif-point" cx="406.8" cy="224.7" r="4.2"><title>Spinus spinus (Linnaeus, 1758) · </title></circle><circle class="gbif-point" cx="366.5" cy="260.5" r="4.2"><title>Steatoda triangulosa (Walckenaer, 1802) · </title></circle><circle class="gbif-point" cx="510.5" cy="696.4" r="4.2"><title>Streptopelia orientalis (Latham, 1790) · </title></circle><circle class="gbif-point" cx="469.7" cy="149.5" r="4.2"><title>Passer montanus (Linnaeus, 1758) · </title></circle><circle class="gbif-point" cx="336.7" cy="990.5" r="4.2"><title>Treron sieboldii (Temminck, 1835) · </title></circle><circle class="gbif-point" cx="564.4" cy="611.8" r="4.2"><title>Mergus merganser Linnaeus, 1758 · </title></circle><circle class="gbif-point" cx="431.8" cy="236.6" r="4.2"><title>Haliaeetus pelagicus (Pallas, 1811) · </title></circle><circle class="gbif-point" cx="311.6" cy="355.3" r="4.2"><title>Ciconia boyciana Swinhoe, 1873 · </title></circle><circle class="gbif-point" cx="359.4" cy="995.0" r="4.2"><title>Capreolus pygargus (Pallas, 1771) · </title></circle><circle class="gbif-point" cx="430.8" cy="228.8" r="4.2"><title>Hypsipetes amaurotis (Temminck, 1830) · </title></circle><circle class="gbif-point" cx="469.3" cy="149.7" r="4.2"><title>Pica serica Gould, 1845 · </title></circle><circle class="gbif-point" cx="469.3" cy="149.6" r="4.2"><title>Pica serica Gould, 1845 · </title></circle><circle class="gbif-point" cx="445.7" cy="423.0" r="4.2"><title>Cyanopica cyanus (Pallas, 1776) · </title></circle><circle class="gbif-point" cx="611.9" cy="243.8" r="4.2"><title>Periparus ater (Linnaeus, 1758) · </title></circle><circle class="gbif-point" cx="469.8" cy="149.5" r="4.2"><title>Corvus macrorhynchos Wagler, 1827 · </title></circle><circle class="gbif-point" cx="469.3" cy="149.8" r="4.2"><title>Pica serica Gould, 1845 · </title></circle><circle class="gbif-point" cx="469.6" cy="149.5" r="4.2"><title>Streptopelia orientalis (Latham, 1790) · </title></circle><circle class="gbif-point" cx="470.3" cy="420.3" r="4.2"><title>Cygnus cygnus (Linnaeus, 1758) · </title></circle><circle class="gbif-point" cx="433.0" cy="275.6" r="4.2"><title>Pica serica Gould, 1845 · </title></circle><circle class="gbif-point" cx="439.9" cy="232.5" r="4.2"><title>Aythya ferina (Linnaeus, 1758) · </title></circle><circle class="gbif-point" cx="469.8" cy="149.5" r="4.2"><title>Parus cinereus Vieillot, 1818 · </title></circle><circle class="gbif-point" cx="458.0" cy="164.0" r="4.2"><title>Columba livia var. domestica J.F.Gmelin, 1789 · </title></circle><circle class="gbif-point" cx="578.3" cy="568.8" r="4.2"><title>Ardea alba Linnaeus, 1758 · </title></circle><circle class="gbif-point" cx="456.7" cy="164.5" r="4.2"><title>Hypsipetes amaurotis (Temminck, 1830) · </title></circle><circle class="gbif-point" cx="437.9" cy="203.7" r="4.2"><title>Yungipicus canicapillus doerriesi Hargitt, 1881 · </title></circle><circle class="gbif-point" cx="409.6" cy="966.6" r="4.2"><title>Spatula clypeata (Linnaeus, 1758) · </title></circle><circle class="gbif-point" cx="680.6" cy="403.3" r="4.2"><title>Poecile palustris (Linnaeus, 1758) · </title></circle><circle class="gbif-point" cx="469.2" cy="149.9" r="4.2"><title>Pica serica Gould, 1845 · </title></circle><circle class="gbif-point" cx="469.5" cy="149.5" r="4.2"><title>Passer montanus (Linnaeus, 1758) · </title></circle><circle class="gbif-point" cx="406.6" cy="223.9" r="4.2"><title>Cyanopica cyanus koreensis Yamashina, 1939 · </title></circle><circle class="gbif-point" cx="410.0" cy="976.3" r="4.2"><title>Hedera rhombea (Miq.) Bean · </title></circle><circle class="gbif-point" cx="472.1" cy="172.0" r="4.2"><title>Felis catus Linnaeus, 1758 · </title></circle><circle class="gbif-point" cx="312.2" cy="971.1" r="4.2"><title>Tradescantia pallida (Rose) D.R.Hunt · </title></circle><circle class="gbif-point" cx="469.7" cy="149.5" r="4.2"><title>Dendrocopos major (Linnaeus, 1758) · </title></circle><circle class="gbif-point" cx="469.8" cy="149.5" r="4.2"><title>Cyanopica cyanus (Pallas, 1776) · </title></circle><circle class="gbif-point" cx="575.8" cy="563.1" r="4.2"><title>Anas zonorhyncha Swinhoe, 1866 · </title></circle><circle class="gbif-point" cx="484.3" cy="173.8" r="4.2"><title>Rhodinia fugax Butler, 1877 · </title></circle><circle class="gbif-point" cx="409.8" cy="969.0" r="4.2"><title>Larus fuscus taimyrensis Buturlin, 1911 · </title></circle><circle class="gbif-point" cx="461.8" cy="89.4" r="4.2"><title>Prunella montanella (Pallas, 1776) · </title></circle><circle class="gbif-point" cx="436.4" cy="273.0" r="4.2"><title>Cyanopica cyanus (Pallas, 1776) · </title></circle><circle class="gbif-point" cx="362.3" cy="964.0" r="4.2"><title>Hypsipetes amaurotis (Temminck, 1830) · </title></circle><circle class="gbif-point" cx="437.0" cy="274.2" r="4.2"><title>Cygnus cygnus (Linnaeus, 1758) · </title></circle><circle class="gbif-point" cx="409.0" cy="968.0" r="4.2"><title>Larus Linnaeus, 1758 · </title></circle><circle class="gbif-point" cx="469.7" cy="149.6" r="4.2"><title>Eophona migratoria Hartert, 1903 · </title></circle><circle class="gbif-point" cx="470.0" cy="149.5" r="4.2"><title>Fringilla montifringilla Linnaeus, 1758 · </title></circle><circle class="gbif-point" cx="474.6" cy="334.7" r="4.2"><title>Aegypius monachus (Linnaeus, 1766) · </title></circle><circle class="gbif-point" cx="354.0" cy="1000.0" r="4.2"><title>Hypsipetes amaurotis (Temminck, 1830) · </title></circle><circle class="gbif-point" cx="469.8" cy="149.5" r="4.2"><title>Corvus macrorhynchos Wagler, 1827 · </title></circle><circle class="gbif-point" cx="458.3" cy="163.4" r="4.2"><title>Ardea alba Linnaeus, 1758 · </title></circle></g>
<g><text class="label" x="359.1" y="984.5" text-anchor="middle">제주</text><text class="label" x="640.5" y="668.9" text-anchor="middle">경상남</text><text class="label" x="708.2" y="456.8" text-anchor="middle">경상북</text><text class="label" x="375.2" y="744.4" text-anchor="middle">전라남</text><text class="label" x="434.7" y="563.1" text-anchor="middle">전라북</text><text class="label" x="388.7" y="412.0" text-anchor="middle">충청남</text><text class="label" x="566.7" y="379.1" text-anchor="middle">충청북</text><text class="label" x="616.4" y="200.8" text-anchor="middle">강원</text><text class="label" x="434.2" y="226.7" text-anchor="middle">경기</text><text class="label" x="468.3" y="406.0" text-anchor="middle">세종</text><text class="label" x="790.3" y="592.1" text-anchor="middle">울산</text><text class="label" x="490.0" y="448.3" text-anchor="middle">대전</text><text class="label" x="396.5" y="662.3" text-anchor="middle">광주</text><text class="label" x="298.3" y="224.4" text-anchor="middle">인천</text><text class="label" x="676.1" y="545.9" text-anchor="middle">대구</text><text class="label" x="758.2" y="659.9" text-anchor="middle">부산</text><text class="label" x="422.0" y="226.9" text-anchor="middle">서울</text></g>
<g transform="translate(34 999)">
  <text class="note" x="0" y="-12" font-weight="700">인구밀도 낮음 → 높음</text>
  <rect x="0" y="0" width="260" height="16" rx="8" fill="url(#densityGradient)"/>
  <text class="note" x="0" y="38">91</text>
  <text class="note" x="260" y="38" text-anchor="end">15,974명/km²</text>
  <circle class="gbif-point" cx="350" cy="8" r="5"/>
  <text class="note" x="368" y="13">GBIF 생물종 관측점</text>
</g>
</svg>
